<?xml version="1.0" standalone="no"?>
<!DOCTYPE svg PUBLIC "-//W3C//DTD SVG 20010904//EN"
 "http://www.w3.org/TR/2001/REC-SVG-20010904/DTD/svg10.dtd">
<svg version="1.0" xmlns="http://www.w3.org/2000/svg"
 width="600.000000pt" height="600.000000pt" viewBox="0 0 600.000000 600.000000"
 preserveAspectRatio="xMidYMid meet">
<metadata>
Created by potrace 1.14, written by Peter Selinger 2001-2017
</metadata>
<g transform="translate(0.000000,600.000000) scale(0.100000,-0.100000)"
fill="#000000" stroke="none">
<path d="M0 4500 l0 -1500 936 0 c848 0 935 1 923 16 -8 9 -21 13 -35 10 -19
-5 -27 3 -55 51 -18 32 -41 70 -52 85 -23 32 -16 48 23 48 21 0 35 -9 51 -32
12 -18 38 -49 57 -68 19 -19 41 -52 49 -73 l15 -37 191 2 191 3 9 38 c5 20 6
48 3 62 l-6 25 -104 -7 c-100 -6 -106 -5 -149 21 -25 14 -59 42 -76 63 -25 30
-40 38 -93 49 -35 8 -82 14 -105 14 -24 0 -61 7 -83 16 -32 13 -47 14 -63 6
-12 -6 -38 -13 -57 -16 -19 -2 -46 -7 -60 -11 -31 -8 -64 14 -55 37 6 16 99
35 150 31 11 -1 61 5 110 13 50 8 112 14 139 14 102 0 -4 28 -134 35 -41 3
-99 10 -128 16 -44 9 -60 8 -92 -5 -28 -11 -47 -13 -64 -6 -19 7 -30 5 -49
-11 -30 -23 -70 -25 -87 -4 -16 19 -40 2 -40 -27 0 -11 -5 -29 -12 -41 -6 -12
-11 -33 -10 -47 l2 -25 -193 6 c-239 8 -272 19 -247 85 6 14 10 48 10 76 0 62
43 154 81 173 47 25 213 20 378 -11 13 -3 25 -14 28 -24 10 -36 89 -16 138 35
29 31 33 32 175 45 80 8 148 13 153 12 21 -6 2 21 -30 42 -21 13 -54 39 -74
57 -51 48 -81 69 -97 69 -9 0 -12 6 -8 16 3 8 1 24 -4 34 -8 15 -5 23 16 39
15 12 35 21 46 21 29 0 31 22 9 81 -30 79 -28 94 16 105 27 7 37 15 38 31 1
12 25 43 56 71 78 71 109 133 114 227 4 84 8 95 34 95 21 0 44 59 34 86 -17
46 -73 48 -73 3 0 -25 -27 -91 -42 -100 -6 -4 -21 5 -33 19 -21 24 -23 25 -46
9 -25 -18 -69 -23 -69 -7 0 5 -10 20 -22 34 -27 29 -70 83 -82 104 -7 12 -3
14 28 8 28 -5 36 -4 36 8 0 22 50 13 71 -13 9 -11 22 -21 29 -21 16 0 38 24
48 51 6 14 23 27 50 34 36 11 45 10 71 -6 17 -10 31 -26 31 -34 0 -9 12 -20
26 -25 19 -8 24 -15 19 -28 -16 -39 -11 -47 31 -50 48 -4 72 -36 68 -92 -2
-31 45 -158 68 -184 4 -6 8 -18 8 -27 0 -15 -5 -16 -32 -8 -17 5 -36 13 -42
19 -37 37 -34 -25 4 -97 17 -31 30 -57 30 -59 0 -2 -13 -4 -29 -4 -17 0 -33
-5 -36 -10 -5 -8 -11 -7 -21 1 -16 13 -19 69 -4 69 15 0 12 36 -3 49 -8 6 -19
29 -26 51 -19 63 -37 50 -66 -47 -14 -49 -35 -116 -46 -151 -11 -35 -22 -78
-24 -97 l-3 -33 33 19 c28 17 34 17 44 5 15 -18 5 -62 -18 -79 -21 -16 -54
-67 -47 -74 3 -3 16 -6 28 -7 19 -1 23 -7 26 -41 2 -22 9 -54 17 -72 8 -17 15
-56 15 -86 0 -94 21 -125 166 -243 51 -42 77 -55 148 -74 62 -16 97 -32 125
-56 21 -19 42 -34 46 -34 3 0 48 -20 99 -45 52 -25 100 -45 108 -45 8 0 42
-14 76 -31 34 -17 70 -29 79 -28 34 4 98 -13 121 -32 26 -20 22 -36 -12 -49
-15 -6 -2 -9 47 -9 l67 -1 0 -1075 c0 -591 -2 -1075 -5 -1075 -3 0 -85 32
-183 71 -97 39 -240 93 -317 120 -154 55 -176 68 -288 180 -42 43 -91 86 -107
96 -38 22 -42 73 -8 97 14 10 21 26 21 46 0 22 12 43 39 73 21 23 38 47 38 53
0 6 20 50 44 98 43 84 76 194 76 254 0 16 -9 41 -20 55 -13 17 -19 34 -15 49
11 43 25 173 25 223 -1 55 -13 95 -43 139 -14 20 -17 30 -8 35 18 11 -26 87
-71 123 -21 16 -38 36 -38 44 0 8 -4 14 -10 14 -5 0 -9 4 -7 8 1 5 -21 32 -50
60 -41 42 -58 52 -85 52 -22 0 -41 9 -57 25 -22 23 -32 27 -88 30 -13 0 -35
13 -50 27 -57 55 -332 137 -367 110 -17 -14 -104 -41 -110 -35 -3 3 -12 1 -20
-6 -7 -6 -30 -14 -51 -16 -20 -3 -44 -12 -52 -21 -10 -9 -19 -12 -25 -6 -12
12 -81 -3 -87 -19 -9 -28 -51 -59 -80 -59 -24 0 -29 -3 -24 -16 4 -12 2 -15
-8 -12 -8 3 -18 -1 -24 -7 -5 -7 -30 -20 -55 -29 -111 -43 -160 -91 -173 -172
-2 -16 -14 -52 -26 -79 -19 -46 -20 -59 -12 -160 10 -120 39 -275 53 -275 4 0
8 -9 8 -20 0 -34 32 -104 63 -135 51 -53 70 -124 45 -165 -17 -27 0 -53 40
-61 l32 -6 0 66 c0 36 -5 82 -10 101 -6 19 -11 76 -12 125 -1 85 1 95 40 182
22 51 43 106 47 123 4 16 11 32 16 35 5 4 9 14 9 24 0 10 11 26 25 35 14 9 25
22 25 30 0 7 11 18 25 24 14 7 30 23 35 37 7 19 17 25 39 25 16 0 33 5 36 10
3 6 19 10 36 10 16 0 29 5 29 11 0 6 6 9 14 6 8 -3 17 1 20 9 8 20 100 11 123
-12 23 -23 25 -44 5 -44 -15 0 -15 -2 -2 -10 23 -15 40 -12 40 6 0 12 6 15 23
10 12 -3 34 -6 50 -6 15 0 27 -5 27 -11 0 -6 -7 -8 -15 -5 -11 4 -15 0 -13
-11 2 -15 -5 -18 -42 -18 -25 0 -48 5 -52 10 -4 6 -8 0 -8 -13 0 -17 7 -24 30
-28 28 -6 43 -24 20 -24 -5 0 -10 -4 -10 -10 0 -5 7 -10 15 -10 8 0 15 -6 15
-14 0 -9 7 -12 23 -9 18 4 19 3 7 -6 -8 -6 -26 -11 -40 -11 -20 0 -22 2 -10
11 13 9 13 10 0 6 -8 -2 -17 -12 -18 -22 -3 -15 1 -17 25 -11 15 4 51 9 78 12
45 4 52 2 67 -20 17 -24 17 -24 -19 -31 -50 -9 -92 -41 -109 -81 -8 -19 -20
-33 -26 -31 -7 1 -14 -8 -16 -20 -2 -13 1 -23 7 -23 6 0 10 -17 9 -38 -3 -56
11 -211 24 -264 14 -56 0 -98 -31 -98 -18 0 -19 -6 -15 -72 2 -40 4 -77 4 -81
0 -4 9 -11 20 -15 13 -5 17 -11 11 -21 -6 -9 -15 -11 -27 -6 -34 15 -54 15
-92 2 -21 -8 -47 -10 -58 -7 -26 10 -53 1 -65 -21 -5 -11 -15 -19 -21 -19 -21
0 3 85 49 170 48 87 71 170 47 170 -15 0 -81 -90 -107 -145 -24 -51 -38 -105
-26 -105 5 0 9 -20 9 -44 0 -25 4 -48 10 -51 5 -3 7 -26 4 -50 -3 -25 -1 -45
4 -45 12 0 32 22 32 36 0 7 13 26 30 44 28 30 34 32 114 35 76 4 87 2 96 -15
14 -25 13 -27 -12 -35 -21 -6 -19 -8 16 -17 35 -10 38 -12 32 -40 -5 -26 -4
-29 9 -18 12 10 15 9 15 -6 1 -18 1 -18 14 -1 13 17 15 16 21 -15 4 -18 13
-40 21 -48 16 -19 8 -60 -12 -60 -10 0 -12 9 -7 33 l6 32 -31 -29 c-17 -16
-30 -34 -29 -40 1 -5 -19 -17 -45 -26 -26 -8 -50 -18 -54 -22 -4 -5 -21 -8
-38 -9 -28 0 -27 -2 19 -19 28 -10 60 -19 73 -19 31 -1 29 -31 -3 -31 -15 0
-25 -6 -25 -14 0 -16 23 -28 60 -32 13 -2 29 -9 35 -17 5 -8 13 -14 18 -15 4
0 13 -3 20 -6 9 -5 9 -7 0 -12 -7 -3 -13 -10 -13 -16 0 -5 -11 -24 -25 -42
-31 -40 -31 -44 -2 -56 17 -7 18 -9 5 -9 -10 -1 -18 -5 -18 -11 0 -5 -8 -10
-17 -11 -11 0 -13 -2 -5 -6 13 -5 67 25 60 33 -7 6 74 89 99 102 27 15 41 -2
21 -25 -12 -15 -10 -15 18 0 130 67 279 200 323 288 l29 59 13 -37 c16 -51 5
-148 -25 -213 -14 -30 -26 -66 -26 -80 0 -14 -7 -35 -15 -47 -10 -15 -11 -23
-4 -25 8 -3 1 -28 -18 -73 -17 -39 -49 -117 -71 -175 -23 -58 -69 -175 -103
-260 -59 -150 -129 -336 -129 -345 0 -3 295 -5 655 -5 539 0 655 2 655 13 0 8
18 58 40 112 45 111 43 105 30 105 -5 0 -24 -19 -41 -42 l-30 -43 3 60 c2 33
8 60 13 60 6 1 21 7 35 15 33 19 91 40 112 40 9 0 21 -7 26 -15 7 -14 12 -13
35 5 38 30 91 50 132 50 45 0 50 -13 58 -147 3 -56 13 -127 22 -157 l16 -56
140 0 140 0 -7 23 c-6 22 -18 32 -29 25 -12 -7 -37 61 -42 117 -6 66 6 126 26
133 9 3 11 -2 6 -17 -10 -32 9 -25 22 8 13 35 7 44 -18 30 -16 -8 -19 -6 -19
16 0 16 -6 25 -15 25 -8 0 -15 -4 -15 -8 0 -4 -19 -9 -42 -11 -23 -1 -57 -11
-75 -22 -37 -23 -43 -19 -13 11 11 11 20 18 20 14 0 -3 15 9 33 25 17 17 48
36 67 42 19 7 44 18 55 24 11 7 38 18 60 25 46 14 72 34 91 71 7 15 21 29 31
31 17 5 19 -2 16 -95 -2 -56 -7 -103 -11 -106 -5 -3 -8 -17 -8 -31 1 -14 -2
-26 -7 -27 -14 -4 -35 -28 -31 -34 2 -4 -3 -10 -11 -13 -12 -4 -13 -10 -6 -25
8 -13 8 -20 0 -23 -5 -2 -11 -17 -13 -33 -2 -17 -8 -29 -13 -28 -5 1 -10 -4
-10 -12 0 -8 5 -12 11 -9 6 3 3 -1 -6 -9 -10 -8 -18 -19 -18 -26 0 -6 -4 -11
-9 -11 -17 0 -5 -33 15 -41 17 -7 17 -8 -3 -8 -14 -1 -23 -7 -23 -16 0 -17 21
-20 37 -4 8 8 13 8 17 0 11 -17 36 -13 30 4 -4 9 0 15 10 15 10 0 13 -6 10
-15 -6 -13 87 -15 817 -13 l824 3 0 140 c-1 123 -3 146 -23 189 -18 39 -20 51
-10 58 20 12 25 10 68 -28 22 -20 40 -34 40 -31 0 3 14 1 32 -4 25 -7 36 -5
50 8 16 15 20 13 55 -21 21 -20 46 -36 56 -36 22 0 100 -34 147 -65 19 -12 50
-25 68 -29 l32 -5 0 1409 0 1410 -180 0 -180 0 0 724 0 724 28 7 c46 12 234
35 285 35 l47 0 0 219 0 219 -66 8 c-88 9 -260 -9 -383 -40 -35 -9 -65 -15
-65 -14 -16 27 -26 67 -26 97 0 21 -3 41 -7 45 -4 4 -8 22 -9 39 -4 96 -39
201 -122 361 -92 180 -281 337 -487 407 -64 22 -86 23 -270 23 -242 1 -300
-11 -464 -91 -182 -89 -301 -214 -396 -416 -23 -51 -47 -108 -53 -127 -32
-101 -42 -141 -52 -205 -6 -38 -16 -86 -20 -105 -9 -33 -13 -67 -40 -320 -7
-58 -12 -112 -13 -120 -2 -15 -7 -17 -167 -50 -58 -13 -130 -28 -160 -35 -30
-7 -88 -19 -127 -25 l-73 -13 0 -114 c0 -119 -5 -130 -42 -96 -17 15 -20 15
-28 3 -10 -16 -48 -16 -111 1 -41 10 -49 26 -49 102 0 69 -21 104 -68 113 -20
4 -42 14 -48 22 -6 8 -22 16 -37 17 -31 4 -47 13 -47 27 0 7 14 8 38 5 42 -7
92 3 91 18 0 17 28 17 45 -1 13 -12 20 -14 29 -5 6 6 24 11 39 11 16 0 31 7
34 15 4 8 13 15 20 15 8 0 20 11 26 25 6 14 16 25 22 24 33 -4 56 3 56 16 0 8
7 15 15 15 13 0 15 87 15 720 l0 720 -141 0 c-86 0 -149 -4 -162 -11 -15 -9
-22 -9 -25 -1 -4 12 -1543 18 -1555 5 -4 -4 -15 -8 -23 -9 -61 -9 -147 -15
-344 -24 -124 -5 -252 -14 -285 -20 -65 -11 -155 -13 -155 -4 0 15 22 44 35
44 7 0 16 4 19 9 4 5 -71 10 -179 10 l-185 1 0 -1500z m1480 1405 c0 -8 -4
-15 -9 -15 -13 0 -22 16 -14 24 11 11 23 6 23 -9z m1120 9 c0 -3 -5 -14 -10
-25 -10 -17 -7 -20 20 -26 36 -7 29 -18 -20 -30 -41 -11 -69 -52 -87 -133
l-13 -55 6 65 c3 36 6 82 7 103 2 27 9 42 22 50 11 6 28 21 38 34 17 21 37 31
37 17z m-1472 -48 c-6 -12 -16 -24 -22 -28 -47 -28 -146 -107 -156 -123 -19
-35 -50 -47 -164 -67 -121 -20 -143 -18 -156 18 -5 13 -17 24 -27 24 -12 0
-14 3 -6 11 8 8 7 19 -1 40 -10 27 -8 32 14 49 14 11 63 29 110 40 47 12 101
26 120 31 38 11 177 25 252 25 44 0 46 -1 36 -20z m601 -22 c25 -5 31 -11 29
-28 -3 -19 3 -22 66 -28 107 -10 167 -28 223 -64 28 -19 59 -34 67 -34 12 0
16 -10 16 -34 0 -42 34 -73 89 -81 70 -11 95 -46 46 -65 -19 -7 -25 -15 -21
-26 5 -12 2 -15 -10 -10 -8 3 -21 6 -27 7 -7 0 -3 4 8 9 20 9 20 9 0 9 -11 1
-42 9 -70 20 -116 44 -115 43 -152 11 -18 -17 -43 -30 -54 -30 -36 0 -108 22
-120 36 -18 21 -38 17 -51 -11 -10 -22 -8 -29 14 -53 50 -53 43 -108 -7 -58
-14 14 -32 23 -40 20 -8 -4 -26 7 -43 25 -16 18 -42 35 -58 40 -20 5 -35 19
-47 44 -30 64 -39 45 -41 -85 -1 -49 2 -60 22 -73 12 -9 22 -22 22 -28 0 -7
19 -21 43 -32 23 -11 46 -24 50 -30 6 -7 10 -6 14 3 7 17 33 15 33 -2 0 -8 -7
-16 -15 -20 -8 -3 -15 -14 -15 -23 0 -31 -29 -63 -57 -63 l-27 0 29 30 c16 16
27 31 24 33 -11 9 -107 41 -129 43 -14 2 -26 8 -28 14 -2 6 -9 16 -16 23 -6 6
-19 28 -29 48 -9 20 -23 42 -32 49 -8 7 -15 19 -15 27 0 10 -7 14 -20 10 -24
-6 -34 20 -25 63 6 25 10 29 30 24 12 -3 26 -1 29 4 3 6 15 8 26 5 15 -4 20 0
20 16 0 30 -18 61 -35 61 -8 0 -19 9 -25 19 -5 11 -20 21 -32 23 -18 2 -23 10
-23 32 0 16 7 32 15 36 37 18 132 43 172 45 27 1 62 12 89 27 52 31 48 30 88
22z m574 -1 c-7 -2 -21 -2 -30 0 -10 3 -4 5 12 5 17 0 24 -2 18 -5z m-1009
-198 c-7 -11 -18 -48 -25 -82 -13 -63 -22 -76 -33 -48 -4 12 -10 13 -25 6 -24
-13 -31 -5 -31 34 0 22 -7 37 -21 46 -28 19 -17 43 31 64 62 28 104 34 111 16
3 -9 0 -25 -7 -36z m1376 -65 c0 -5 -7 -10 -16 -10 -8 0 -12 5 -9 10 3 6 10
10 16 10 5 0 9 -4 9 -10z m-300 -44 c0 -3 -4 -8 -10 -11 -5 -3 -10 -1 -10 4 0
6 5 11 10 11 6 0 10 -2 10 -4z m-137 -95 c34 -13 42 -56 22 -112 -9 -24 -17
-55 -18 -69 -2 -14 -8 -34 -14 -44 -9 -17 -12 -14 -18 23 -5 28 -15 47 -31 58
-32 21 -51 5 -34 -27 9 -18 8 -25 -6 -41 -21 -24 -34 -24 -34 -1 0 9 -5 24
-10 32 -7 12 -13 11 -34 -9 -28 -26 -28 -26 -45 6 -16 31 -14 63 6 85 15 17
15 19 -3 33 -17 13 -17 14 -2 15 9 0 20 -4 23 -10 3 -5 15 -10 26 -10 10 0 19
5 19 10 0 6 7 10 15 10 8 0 15 5 15 11 0 5 3 8 8 5 4 -2 25 7 47 20 47 28 38
26 68 15z m-320 -68 c4 -3 -2 -17 -14 -29 -21 -23 -22 -34 -4 -90 9 -29 -39
-74 -79 -74 -36 0 -52 60 -20 78 14 8 14 12 3 29 -10 18 -10 24 3 37 9 9 18
21 20 27 2 6 19 14 38 19 48 11 46 11 53 3z m-783 -144 c0 -5 4 -8 9 -5 5 3
14 -1 21 -9 10 -12 9 -15 -7 -15 -19 0 -43 18 -43 32 0 4 5 8 10 8 6 0 10 -5
10 -11z m4300 -185 c0 -8 -4 -12 -10 -9 -5 3 -10 10 -10 16 0 5 5 9 10 9 6 0
10 -7 10 -16z m-3352 -136 c7 -7 12 -23 12 -36 0 -19 -4 -23 -17 -17 -10 4
-30 12 -45 17 -29 10 -37 33 -15 41 22 10 53 7 65 -5z m32 -105 c0 -5 -4 -15
-10 -23 -11 -18 -25 -7 -17 15 6 15 27 21 27 8z m-476 -41 c2 -4 -2 -16 -10
-26 -12 -16 -18 -18 -39 -8 -14 6 -25 16 -25 21 0 16 65 28 74 13z m441 -32
c-3 -5 -10 -10 -16 -10 -5 0 -9 5 -9 10 0 6 7 10 16 10 8 0 12 -4 9 -10z
m2717 -174 c-6 -23 -11 -57 -11 -76 -1 -19 -6 -39 -11 -44 -14 -14 -12 -23 7
-30 11 -4 28 4 50 26 18 17 33 28 33 24 0 -5 7 -3 16 5 13 10 17 10 24 -1 6
-10 14 -7 34 14 32 31 32 31 39 6 6 -22 55 -28 73 -10 17 17 74 0 74 -21 0
-13 7 -19 24 -19 23 0 24 -2 21 -57 -5 -83 -21 -167 -39 -202 -20 -38 -20 -41
4 -41 26 0 25 -15 -4 -100 -22 -62 -23 -69 -7 -61 10 6 23 17 31 25 20 25 40
19 40 -12 0 -30 -31 -95 -63 -129 -15 -18 -18 -28 -11 -44 9 -20 11 -20 53 15
23 20 47 36 51 36 14 0 17 -23 9 -60 -12 -52 -11 -80 5 -80 19 0 26 -86 26
-316 0 -156 -3 -194 -13 -194 -15 0 -171 137 -223 195 -17 19 -41 35 -53 35
-12 0 -21 6 -21 15 0 8 -7 15 -15 15 -10 0 -15 -10 -15 -32 0 -18 -9 -44 -20
-58 -11 -14 -20 -30 -20 -35 0 -16 -90 -115 -133 -146 -22 -16 -34 -29 -26
-29 37 0 182 158 214 232 9 22 15 28 18 18 3 -8 8 -105 12 -215 3 -110 10
-201 16 -203 5 -2 9 -13 9 -25 -1 -21 -1 -21 -14 -4 -11 14 -15 15 -19 3 -9
-23 31 -28 43 -5 6 10 8 19 4 19 -4 0 -5 2 -2 5 3 4 23 -5 43 -20 21 -14 35
-25 32 -25 -4 0 18 -25 48 -57 30 -31 55 -60 55 -65 0 -5 6 -6 13 -2 7 5 7 1
-3 -12 -8 -10 -10 -16 -5 -11 11 9 45 -21 45 -40 0 -8 4 -12 8 -9 4 2 17 -9
27 -25 11 -16 23 -29 27 -29 4 0 5 -6 2 -14 -3 -9 3 -17 18 -22 22 -7 22 -7 3
-15 -18 -7 -18 -8 -2 -8 10 -1 16 -5 12 -10 -3 -5 0 -15 7 -23 14 -14 20 -90
6 -82 -4 3 -8 0 -8 -5 0 -6 6 -11 14 -11 9 0 12 -7 9 -20 -3 -11 0 -20 6 -20
5 0 8 -7 5 -15 -4 -8 -2 -15 4 -15 5 0 10 -17 9 -37 0 -21 -2 -30 -4 -21 -3
10 -10 15 -19 11 -8 -3 -14 1 -14 11 0 9 -6 16 -12 16 -8 1 -5 6 5 15 15 10
17 18 8 32 -9 16 -10 16 -11 1 0 -9 -4 -19 -9 -22 -5 -4 -8 2 -7 11 2 10 -7
23 -18 29 -12 6 -20 16 -19 22 2 6 -9 19 -25 29 -15 9 -38 26 -52 37 -15 13
-19 15 -12 4 7 -9 9 -18 5 -21 -12 -6 -57 -2 -71 7 -8 5 -12 -1 -13 -16 0 -22
-1 -22 -9 -3 -5 11 -9 14 -9 7 -1 -7 -5 -10 -11 -7 -5 3 -10 2 -10 -3 0 -6
-19 -4 -45 4 -28 8 -45 9 -45 3 0 -6 -5 -7 -11 -3 -7 4 -6 -2 1 -17 12 -23 12
-23 -6 -8 -15 13 -23 14 -41 4 -13 -6 -20 -15 -15 -19 4 -4 3 -6 -3 -4 -5 2
-10 -1 -10 -7 0 -5 6 -9 12 -9 20 2 6 -13 -17 -19 -11 -3 -18 -1 -14 4 3 5 0
9 -7 9 -8 0 -8 5 2 16 18 22 20 41 3 55 -17 14 -19 33 -2 23 7 -4 8 -3 4 4 -4
7 5 24 19 38 15 15 20 24 12 21 -8 -3 -23 3 -33 14 -9 10 -13 19 -7 19 5 0 14
12 21 28 9 21 10 22 6 3 -5 -18 -3 -22 7 -15 11 6 11 5 0 -9 -12 -15 -12 -17
3 -11 9 3 16 1 16 -5 0 -6 7 -8 15 -5 11 4 12 10 6 18 -7 8 -3 16 12 25 18 11
20 11 10 0 -18 -19 -16 -32 4 -25 15 6 15 4 -2 -14 -19 -21 -8 -29 13 -8 10
10 15 10 21 -1 5 -8 14 -10 22 -6 9 6 7 10 -9 16 -15 6 -21 16 -20 33 1 13 6
22 10 20 10 -6 11 10 1 20 -7 7 -12 23 -17 61 -5 34 -18 55 -29 48 -6 -4 -7
-1 -3 6 5 7 15 10 23 6 13 -4 14 -3 3 10 -7 8 -16 12 -21 9 -5 -3 -9 -3 -9 0
0 2 -3 13 -7 23 -6 16 -5 16 10 4 9 -7 17 -11 17 -8 0 10 -31 37 -43 37 -7 0
-6 -4 3 -10 12 -7 11 -9 -6 -8 -14 2 -20 7 -17 18 3 10 -6 24 -22 34 -14 9
-23 22 -19 28 4 7 3 8 -5 4 -6 -4 -8 -12 -5 -18 4 -6 1 -8 -7 -6 -8 3 -13 9
-12 14 1 5 -22 8 -50 8 -29 -1 -44 1 -34 3 9 2 17 8 17 12 0 12 -42 47 -77 65
-35 18 -41 34 -20 55 10 11 8 13 -13 7 -14 -3 -37 -6 -53 -6 -19 0 -30 -7 -37
-22 -5 -13 -29 -42 -52 -65 -41 -41 -46 -43 -106 -44 -58 -2 -62 -3 -56 -22 6
-20 6 -20 -11 -3 -17 16 -19 16 -39 -2 -11 -11 -29 -18 -39 -17 -9 2 -15 -1
-11 -6 3 -5 1 -9 -5 -9 -6 0 -8 -8 -4 -17 5 -15 3 -15 -11 2 -10 11 -15 14
-11 8 3 -7 2 -13 -4 -13 -5 0 -8 -7 -7 -15 3 -18 16 -32 16 -17 0 7 10 12 23
12 12 0 17 -4 12 -8 -6 -4 -18 -20 -28 -35 -10 -15 -22 -25 -27 -22 -6 4 -10
1 -10 -5 0 -7 7 -10 15 -7 8 4 17 2 20 -3 4 -6 1 -10 -6 -10 -10 0 -10 -3 -2
-11 6 -6 9 -18 6 -25 -3 -8 -1 -14 4 -14 14 0 3 -58 -12 -63 -8 -4 -11 3 -8
21 10 64 -3 94 -37 85 -26 -7 -25 1 2 37 12 16 19 33 15 37 -4 3 -7 1 -7 -5 0
-7 -5 -12 -11 -12 -5 0 -8 4 -5 9 3 5 -2 8 -11 7 -13 -1 -18 7 -18 25 0 14 -8
33 -17 42 -15 15 -17 15 -30 0 -7 -9 -8 -14 -3 -11 6 4 17 3 23 -1 10 -6 9
-11 -4 -22 -10 -8 -15 -9 -11 -2 5 8 1 11 -12 10 -14 -1 -17 -5 -11 -13 6 -6
7 -14 3 -17 -3 -4 -1 -7 6 -7 7 0 11 -6 8 -14 -4 -11 0 -13 16 -10 12 2 30 1
40 -2 17 -5 17 -8 3 -29 -17 -25 -5 -45 26 -45 15 0 17 -4 10 -17 -5 -10 -7
-24 -5 -30 6 -15 -23 -17 -32 -3 -4 6 -10 8 -15 5 -9 -5 -23 20 -25 48 -1 9 2
17 8 17 14 0 0 13 -18 16 -8 1 -11 -4 -9 -11 4 -10 -1 -12 -16 -8 -12 3 -18 9
-13 12 4 3 9 20 10 36 0 17 -1 25 -4 18 -2 -7 -11 -9 -19 -6 -8 3 -14 0 -14
-6 0 -6 6 -11 13 -11 8 0 8 -3 1 -8 -5 -4 -10 -16 -10 -27 0 -15 7 -20 26 -20
21 0 25 -4 23 -25 -1 -14 0 -19 3 -12 7 16 25 5 18 -11 -3 -8 4 -13 17 -14 26
-2 28 -4 32 -33 2 -13 12 -27 23 -31 15 -6 12 -8 -11 -7 -47 3 -60 -10 -32
-32 32 -26 57 -19 73 18 7 18 19 32 26 32 9 0 9 -3 -2 -10 -12 -8 -12 -10 -1
-10 11 0 11 -3 0 -17 -8 -10 -9 -14 -2 -10 6 4 14 3 18 -3 4 -6 11 -8 16 -5 5
4 9 1 9 -5 0 -7 -12 -9 -34 -5 -25 5 -35 3 -39 -9 -8 -19 13 -22 31 -4 7 7 12
9 12 5 0 -16 2 -23 13 -37 7 -9 4 -8 -9 2 -18 16 -23 16 -40 3 -18 -14 -18
-14 2 -9 12 3 25 0 29 -7 5 -7 4 -10 -3 -5 -6 3 -13 2 -16 -3 -9 -14 55 -2 69
13 9 9 10 18 3 31 -9 15 -8 17 4 12 16 -6 18 12 5 46 -18 45 -18 50 -3 38 8
-7 12 -20 9 -28 -5 -12 -2 -15 9 -11 11 5 14 -2 13 -28 -1 -48 8 -58 29 -35
17 19 17 21 2 36 -22 23 -20 32 2 12 10 -10 26 -17 34 -17 11 0 14 -6 11 -20
-4 -13 0 -20 10 -20 8 0 18 -7 21 -16 4 -10 13 -14 24 -10 14 5 14 3 -2 -9
-11 -8 -14 -15 -7 -15 7 0 10 -4 6 -9 -3 -6 -22 -10 -43 -10 -82 -1 -112 -6
-112 -18 0 -16 -66 -18 -75 -3 -10 16 -25 12 -25 -6 0 -15 -3 -15 -26 1 -15 9
-23 12 -20 6 9 -15 -15 -39 -33 -33 -8 3 -11 0 -7 -7 4 -6 2 -11 -3 -11 -6 0
-10 -5 -9 -12 2 -7 -2 -12 -9 -13 -6 0 -28 -21 -48 -47 -20 -27 -40 -48 -46
-48 -6 0 -7 5 -4 10 3 6 1 10 -6 10 -7 0 -9 -10 -7 -25 3 -15 1 -22 -5 -18 -6
4 -8 0 -4 -9 4 -11 -1 -18 -14 -21 -16 -4 -17 -2 -8 14 7 15 6 19 -5 19 -21 0
-26 25 -9 49 8 12 13 31 10 42 -4 16 1 21 24 26 22 4 31 13 35 33 7 31 34 36
34 6 0 -16 2 -18 9 -7 5 8 7 20 4 28 -3 9 0 11 10 7 9 -3 13 -12 10 -20 -7
-19 11 -18 27 1 10 12 8 21 -2 13 -2 -1 -13 4 -26 11 -14 7 -20 17 -15 24 11
18 12 36 3 42 -5 3 -7 -4 -5 -16 3 -15 -2 -23 -15 -26 -11 -3 -17 -10 -13 -16
3 -6 1 -7 -6 -3 -9 6 -9 11 0 22 9 10 9 14 0 14 -6 0 -14 -7 -17 -15 -4 -8
-11 -15 -16 -15 -6 0 -2 12 8 28 14 21 14 24 2 14 -11 -9 -17 -9 -20 -2 -2 7
-13 3 -27 -9 -13 -11 -28 -18 -34 -14 -6 4 -8 0 -4 -10 3 -9 3 -16 -1 -16 -4
1 -9 0 -12 -1 -24 -9 -41 -7 -36 5 2 7 -1 16 -8 18 -10 4 -12 -1 -9 -16 5 -18
3 -20 -7 -10 -9 8 -18 9 -25 3 -8 -7 -12 -5 -12 5 0 8 4 12 9 9 4 -3 8 -1 8 5
0 5 -8 12 -17 14 -11 3 -7 5 10 6 15 0 27 5 27 11 0 16 -35 29 -51 19 -12 -7
-12 -9 1 -9 13 0 13 -1 0 -10 -9 -6 -17 -5 -22 3 -4 7 -8 8 -8 2 0 -5 -4 -4
-9 4 -5 8 -7 24 -5 37 5 26 -33 55 -45 35 -4 -6 -18 -9 -31 -6 -18 3 -21 2
-12 -7 17 -17 40 -18 46 -2 3 7 12 11 21 8 21 -8 19 -28 -2 -20 -15 5 -15 4 1
-9 11 -8 14 -15 7 -15 -6 0 -11 -8 -9 -17 3 -17 -1 -19 -37 -22 -8 0 -15 -9
-15 -18 0 -16 2 -16 11 -3 9 13 10 13 6 0 -2 -8 -11 -13 -18 -11 -8 2 -19 4
-25 4 -6 0 -11 6 -11 14 0 9 4 10 14 2 10 -9 13 -8 13 5 0 9 7 16 15 16 8 0
15 5 15 10 0 6 -5 10 -11 10 -5 0 -7 5 -3 12 4 7 3 8 -5 4 -6 -4 -18 -2 -26 4
-12 10 -15 10 -15 1 0 -8 -8 -10 -22 -5 -32 9 -35 14 -18 25 12 7 12 11 2 17
-16 11 18 44 50 49 16 3 19 -1 15 -17 -6 -24 24 -28 43 -5 9 10 9 15 1 15 -6
0 -11 -5 -11 -11 0 -5 -5 -7 -10 -4 -6 4 -8 11 -5 16 4 5 1 9 -5 9 -7 0 -10 7
-7 15 5 11 1 12 -19 5 -22 -9 -24 -8 -14 10 6 11 15 20 19 20 5 0 11 9 14 19
5 21 47 26 47 6 0 -5 4 -4 9 4 5 8 7 21 3 29 -3 10 -1 13 6 8 7 -4 12 -2 12 3
0 6 11 11 25 11 14 0 25 5 25 10 0 6 -5 10 -10 10 -6 0 -9 3 -9 8 1 4 0 9 -1
12 -1 3 -3 14 -5 25 -3 19 -2 18 15 -2 10 -13 23 -23 29 -23 11 0 13 5 15 33
1 6 6 15 11 19 6 5 5 8 -2 8 -7 0 -13 4 -13 10 0 11 35 8 46 -3 11 -10 26 -8
19 2 -3 5 -1 12 5 16 6 4 8 11 4 16 -3 5 -10 6 -16 3 -7 -4 -8 -2 -4 4 4 7 2
12 -5 12 -8 0 -8 4 1 15 7 8 17 15 22 15 6 0 6 -6 -1 -14 -17 -20 0 -27 24
-10 16 12 17 16 6 23 -25 16 6 21 119 20 83 -1 110 -5 106 -14 -2 -7 5 -12 17
-12 41 -1 48 -3 42 -13 -4 -6 -1 -9 6 -8 18 4 47 32 42 41 -6 11 15 8 22 -3 3
-5 10 -10 16 -10 5 0 9 5 9 10 0 6 -6 10 -14 10 -18 0 -22 12 -41 137 -16 110
-20 253 -6 218 5 -11 23 -33 41 -49 18 -15 31 -24 28 -20 -37 78 -50 119 -58
191 -7 68 -16 95 -40 133 -30 47 -52 65 -64 53 -3 -4 -6 -77 -6 -164 l0 -157
-51 -60 c-51 -61 -164 -162 -267 -239 l-57 -43 -219 0 -219 0 8 353 c4 193 10
406 14 471 l6 119 79 19 c43 11 85 17 92 14 9 -4 14 -22 14 -54 0 -27 4 -62 9
-78 5 -16 15 -57 22 -91 13 -61 29 -85 29 -43 0 35 26 22 40 -19 8 -26 20 -41
33 -43 14 -2 26 -22 44 -73 43 -120 52 -107 33 45 -11 83 0 113 21 56 18 -51
29 -45 29 17 0 30 3 56 6 60 10 10 34 -4 34 -20 0 -8 5 -11 10 -8 6 3 10 26
10 50 0 49 12 62 43 47 52 -23 77 -31 81 -24 7 12 -4 23 -56 62 -52 39 -62 62
-52 127 6 38 9 44 26 40 11 -3 30 -2 42 3 11 5 29 11 40 14 16 5 12 12 -26 45
-46 41 -68 89 -68 150 0 36 8 38 43 11 33 -26 37 -25 37 10 0 38 29 67 75 76
42 8 48 3 63 -51 12 -43 52 -80 52 -49 0 13 6 15 33 10 17 -4 34 -11 35 -16
12 -33 82 25 82 67 0 28 -11 38 -67 66 -54 28 -69 42 -54 51 5 4 5 22 -1 47
-16 63 5 73 27 12 22 -58 38 -77 88 -97 37 -15 38 -15 46 7 8 21 9 21 24 -9
25 -48 42 -57 107 -56 33 0 60 -3 60 -8 0 -5 8 -7 18 -3 27 10 62 45 79 81 20
42 24 37 13 -13 -5 -21 -5 -46 -1 -54 7 -11 15 -4 36 30 16 24 31 46 34 49 3
3 7 19 7 35 1 17 7 44 14 60 7 17 14 52 17 79 2 28 10 59 16 70 11 20 12 19
15 -13 2 -19 -1 -53 -6 -75z m-861 -82 c7 -14 24 -30 37 -35 29 -11 70 -2 74
17 2 11 12 8 42 -12 l40 -27 -53 -13 c-29 -8 -61 -18 -71 -24 -36 -19 -60 -12
-74 23 -30 74 -27 129 5 71z m366 -46 c-3 -8 -6 -5 -6 6 -1 11 2 17 5 13 3 -3
4 -12 1 -19z m-4077 -18 c0 -5 -7 -10 -16 -10 -8 0 -12 5 -9 10 3 6 10 10 16
10 5 0 9 -4 9 -10z m-85 -9 c7 -12 -1 -17 -42 -26 -40 -8 -44 7 -5 22 36 14
40 15 47 4z m3795 -50 c0 -5 -9 -19 -20 -32 l-19 -24 -1 33 c0 25 4 32 20 32
11 0 20 -4 20 -9z m358 -84 c2 -12 -3 -17 -17 -17 -15 0 -21 6 -21 21 0 25 33
22 38 -4z m-2063 -107 c3 -5 1 -10 -4 -10 -6 0 -11 5 -11 10 0 6 2 10 4 10 3
0 8 -4 11 -10z m638 -200 c-4 -61 -10 -135 -12 -137 0 -1 -13 9 -27 22 -24 23
-25 25 -10 54 9 16 16 46 16 66 0 29 3 36 18 33 13 -3 16 -12 15 -38z m11
-167 c4 -5 34 -6 67 -5 l60 4 -1 -231 c-1 -127 -4 -231 -8 -231 -4 1 -41 32
-82 70 -82 77 -82 73 -11 112 25 14 31 23 31 51 0 19 -7 40 -15 47 -9 8 -15
29 -15 56 0 34 -3 42 -15 38 -20 -8 -19 6 2 21 15 11 15 15 4 29 -7 9 -16 14
-20 12 -4 -3 -13 -1 -21 4 -9 5 -19 5 -27 -2 -7 -6 -13 -7 -13 -3 0 10 32 34
46 35 6 0 14 -3 18 -7z m-1800 -79 c9 -8 16 -22 16 -30 0 -12 -7 -10 -28 8
-19 15 -25 26 -18 30 14 10 12 10 30 -8z m1796 -116 c-12 -10 -27 -18 -33 -18
-5 0 -3 8 6 18 10 10 25 19 34 19 13 0 11 -4 -7 -19z m-414 -222 c24 -19 12
-32 -38 -41 -35 -7 -38 -6 -38 17 0 14 3 28 7 31 11 12 48 8 69 -7z m324 -48
c0 -15 -37 -8 -54 11 -16 18 -15 18 19 7 19 -6 35 -14 35 -18z m88 -36 c5 -17
-40 -15 -64 2 -18 14 -16 15 20 13 22 -2 41 -8 44 -15z m37 -22 c3 -6 26 -19
51 -30 31 -14 44 -27 44 -41 0 -19 -2 -19 -45 6 -74 41 -95 57 -89 66 7 12 31
11 39 -1z m-1914 -180 c24 -20 24 -20 5 -35 -11 -8 -33 -15 -49 -15 -16 0 -58
-5 -94 -12 -51 -9 -66 -9 -76 1 -10 11 -9 13 3 9 21 -7 70 19 70 37 0 38 102
49 141 15z m3659 -15 c0 -11 -11 -15 -42 -15 -40 1 -42 2 -24 15 26 20 66 19
66 0z m-402 -87 c-2 -6 -10 -14 -18 -16 -7 -3 -10 0 -7 5 4 6 -4 9 -18 7 -14
-1 -25 2 -25 7 0 5 16 9 36 9 23 0 34 -4 32 -12z m287 2 c3 -5 1 -10 -4 -10
-6 0 -11 5 -11 10 0 6 2 10 4 10 3 0 8 -4 11 -10z m-119 -24 c2 -14 1 -14 -3
0 -3 9 -11 13 -19 10 -9 -3 -12 -1 -9 5 10 15 30 5 31 -15z m259 14 c-3 -5
-12 -10 -18 -10 -7 0 -6 4 3 10 19 12 23 12 15 0z m-110 -20 c-3 -5 -12 -10
-18 -10 -7 0 -6 4 3 10 19 12 23 12 15 0z m135 -16 c0 -2 -9 -4 -20 -4 -11 0
-20 4 -20 9 0 5 9 7 20 4 11 -3 20 -7 20 -9z m-397 -30 c-6 -17 -6 -17 -22 14
-12 22 -11 23 8 13 12 -7 18 -17 14 -27z m122 17 c3 -5 2 -12 -3 -15 -5 -3 -9
1 -9 9 0 17 3 19 12 6z m305 -21 c0 -5 -7 -7 -15 -4 -8 4 -15 8 -15 10 0 2 7
4 15 4 8 0 15 -4 15 -10z m-55 -10 c-3 -5 -12 -10 -18 -10 -7 0 -6 4 3 10 19
12 23 12 15 0z m-545 -24 c0 -3 -4 -8 -10 -11 -5 -3 -10 -1 -10 4 0 6 5 11 10
11 6 0 10 -2 10 -4z m180 -38 c0 -4 -5 -8 -12 -8 -6 0 -8 3 -5 6 3 4 2 16 -4
28 -10 20 -10 20 5 2 9 -11 16 -23 16 -28z m74 34 c3 -5 -1 -9 -9 -9 -8 0 -12
4 -9 9 3 4 7 8 9 8 2 0 6 -4 9 -8z m-638 -47 c-9 -9 -16 -13 -16 -8 0 12 22
34 28 28 2 -2 -3 -11 -12 -20z m952 5 c-7 -10 -14 -17 -17 -15 -4 4 18 35 25
35 2 0 -1 -9 -8 -20z m173 1 c-6 -10 -7 -21 -4 -25 6 -5 -8 -4 -46 3 -2 1 2 8
9 16 7 8 16 13 20 10 5 -3 11 -1 15 5 11 18 16 11 6 -9z m-596 -1 c3 -6 -1 -7
-9 -4 -18 7 -21 14 -7 14 6 0 13 -4 16 -10z m85 0 c0 -5 -2 -10 -4 -10 -3 0
-8 5 -11 10 -3 6 -1 10 4 10 6 0 11 -4 11 -10z m117 -6 c-3 -3 -12 -4 -19 -1
-8 3 -5 6 6 6 11 1 17 -2 13 -5z m303 -14 c0 -5 -2 -10 -4 -10 -3 0 -8 5 -11
10 -3 6 -1 10 4 10 6 0 11 -4 11 -10z m125 -10 c8 0 17 -5 21 -12 5 -8 2 -9
-10 -5 -26 10 -38 -1 -26 -24 7 -13 7 -19 0 -19 -5 0 -10 5 -10 10 0 6 -5 10
-11 10 -5 0 -7 -6 -3 -12 4 -7 -2 -5 -13 5 -26 23 -28 22 -30 -13 -1 -20 2
-28 11 -24 7 3 13 -2 13 -10 0 -11 -5 -13 -18 -5 -10 5 -21 14 -24 19 -4 6
-11 8 -16 5 -5 -3 -6 1 -3 9 3 8 12 12 21 9 13 -5 14 -3 3 17 -8 15 -8 20 -1
16 6 -4 11 -2 11 5 0 8 5 7 17 -2 15 -12 16 -12 9 6 -6 16 -5 18 5 8 19 -19
29 -16 30 10 0 12 3 16 6 10 2 -7 11 -13 18 -13z m-120 -21 c11 -17 -1 -21
-15 -4 -8 9 -8 15 -2 15 6 0 14 -5 17 -11z m-477 -40 c-3 -8 -7 -3 -11 10 -4
17 -3 21 5 13 5 -5 8 -16 6 -23z m433 12 c-7 -4 -3 -14 10 -25 12 -9 18 -20
14 -24 -4 -4 -14 4 -23 17 -22 32 -24 51 -5 44 9 -4 11 -8 4 -12z m-531 -11
c0 -5 -2 -10 -4 -10 -3 0 -8 5 -11 10 -3 6 -1 10 4 10 6 0 11 -4 11 -10z m132
-8 c3 -11 0 -19 -8 -19 -15 0 -19 19 -7 30 9 10 10 9 15 -11z m620 11 c-6 -2
-10 -8 -7 -13 3 -4 -3 -14 -12 -21 -15 -12 -16 -12 -8 1 6 8 10 18 11 23 1 4
2 9 3 12 0 3 7 5 14 4 9 0 9 -2 -1 -6z m-392 -28 c-7 -9 -15 -13 -17 -11 -7 7
7 26 19 26 6 0 6 -6 -2 -15z m-373 -9 c-18 -14 -18 -15 0 -25 17 -10 17 -10 1
-11 -10 0 -18 2 -18 4 0 2 -3 11 -6 19 -3 10 2 17 13 20 29 7 29 7 10 -7z
m543 -7 c0 -5 -4 -9 -8 -9 -5 0 -9 7 -9 15 0 8 4 12 9 9 4 -3 8 -9 8 -15z m54
-4 c-4 -8 -8 -15 -10 -15 -2 0 -4 7 -4 15 0 8 4 15 10 15 5 0 7 -7 4 -15z
m-81 -18 c7 4 6 -1 -2 -10 -12 -15 -12 -17 0 -12 8 3 19 -5 26 -20 6 -14 8
-23 3 -20 -4 3 -10 -2 -14 -10 -4 -11 1 -15 17 -15 13 0 28 -5 35 -12 9 -9 12
-8 12 4 0 9 -5 18 -12 20 -6 2 -8 9 -4 16 5 9 10 9 20 -1 8 -6 12 -15 9 -20
-2 -4 2 -14 11 -22 13 -14 15 -13 13 4 0 11 -4 18 -8 15 -4 -2 -5 5 -2 16 3
11 10 23 15 26 6 4 8 -2 3 -15 -5 -17 -2 -21 17 -21 18 0 20 -2 8 -10 -13 -8
-13 -13 -2 -30 15 -25 6 -68 -11 -51 -6 6 -19 11 -30 11 -11 0 -15 5 -11 11 4
8 1 8 -13 1 -11 -6 -29 -8 -41 -5 -18 4 -22 1 -22 -16 0 -11 5 -21 12 -21 19
0 -4 -18 -27 -21 -11 -1 -31 3 -45 8 -15 6 -30 7 -36 2 -13 -11 -24 -2 -18 14
5 13 -34 42 -44 33 -3 -3 3 -15 13 -26 10 -11 15 -23 12 -27 -4 -3 -7 -1 -7 6
0 7 -4 9 -10 6 -5 -3 -10 -1 -10 5 0 6 -4 8 -10 5 -5 -3 -10 2 -10 12 0 15 -2
16 -10 3 -7 -11 -10 -11 -10 -2 0 7 -4 10 -10 7 -5 -3 -10 -4 -10 0 0 3 11 10
25 15 33 13 35 50 3 44 -14 -3 -10 1 10 10 17 8 32 18 32 21 0 3 -9 1 -21 -5
-11 -7 -23 -9 -27 -6 -3 3 1 6 9 6 12 0 11 2 -1 11 -12 8 -10 9 9 4 15 -5 21
-4 17 4 -5 7 2 7 24 -1 17 -5 29 -13 26 -15 -3 -3 1 -11 7 -18 13 -14 37 -2
37 19 0 6 -4 4 -10 -4 -8 -12 -10 -12 -16 3 -3 9 -13 17 -21 17 -8 0 -12 4 -9
9 3 4 17 7 31 6 14 -2 25 1 25 6 0 5 -6 9 -12 9 -7 0 -1 8 15 18 15 9 28 21
28 27 1 5 3 2 6 -8 3 -10 9 -14 16 -10z m-185 -10 c-1 -14 -8 -23 -20 -23 -22
0 -22 1 0 25 22 25 22 25 20 -2z m-102 5 c-2 -4 3 -18 13 -31 16 -20 18 -21
16 -4 0 10 -5 25 -10 33 -7 12 -6 13 7 3 8 -7 18 -9 22 -5 4 4 4 -6 0 -22 -5
-21 -4 -27 5 -22 6 4 11 2 11 -3 0 -6 7 -11 15 -11 8 0 15 -7 15 -15 0 -13 -4
-14 -22 -4 -16 8 -12 2 10 -19 l33 -30 -25 -4 c-16 -3 -27 0 -30 9 -3 8 -10
12 -15 9 -14 -9 -46 35 -43 60 3 22 -6 30 -33 24 -5 -1 -1 8 9 19 19 21 32 28
22 13z m337 -6 c-4 -5 3 -7 15 -4 15 4 19 2 15 -8 -7 -18 -16 -18 -43 4 -21
17 -21 18 -2 18 11 0 18 -5 15 -10z m-386 -11 c0 -8 -4 -12 -9 -9 -5 3 -6 10
-3 15 9 13 12 11 12 -6z m253 5 c0 -5 -4 -10 -10 -10 -5 0 -10 5 -10 10 0 6 5
10 10 10 6 0 10 -4 10 -10z m-356 -16 c3 -8 2 -12 -4 -9 -6 3 -10 10 -10 16 0
14 7 11 14 -7z m-91 -14 c3 6 4 5 3 -2 -4 -18 -28 -16 -34 2 -4 13 -3 13 10 2
11 -9 18 -9 21 -2z m692 -10 c-3 -5 -12 -10 -18 -10 -7 0 -6 4 3 10 19 12 23
12 15 0z m-1255 -72 c0 -12 -18 -19 -25 -9 -3 6 -13 7 -22 4 -11 -4 -14 -3 -9
5 7 12 56 13 56 0z m46 -7 c-3 -5 -15 -11 -26 -14 -17 -4 -19 -3 -9 9 12 15
44 20 35 5z m94 -25 c0 -2 -7 -7 -16 -10 -8 -3 -12 -2 -9 4 6 10 25 14 25 6z
m-2470 -16 c0 -5 -4 -10 -9 -10 -6 0 -13 5 -16 10 -3 6 1 10 9 10 9 0 16 -4
16 -10z m3543 3 c-7 -3 -13 -11 -13 -19 0 -16 -36 -19 -45 -5 -3 6 4 8 16 6
15 -3 18 -1 11 8 -8 9 -3 12 16 13 15 1 21 -1 15 -3z m-873 -23 c0 -5 -2 -10
-4 -10 -3 0 -8 5 -11 10 -3 6 -1 10 4 10 6 0 11 -4 11 -10z m-230 -10 c0 -5
-5 -10 -11 -10 -5 0 -7 5 -4 10 3 6 8 10 11 10 2 0 4 -4 4 -10z m834 2 c3 -5
-1 -9 -9 -9 -8 0 -12 4 -9 9 3 4 7 8 9 8 2 0 6 -4 9 -8z m-799 -21 c3 -5 1
-12 -5 -16 -5 -3 -10 1 -10 9 0 18 6 21 15 7z m-22 -21 c3 -11 1 -20 -4 -20
-5 0 -9 2 -9 4 0 2 -3 11 -6 20 -3 9 -2 16 4 16 5 0 12 -9 15 -20z m212 0 c-3
-5 -12 -10 -18 -10 -7 0 -6 4 3 10 19 12 23 12 15 0z m789 2 c3 -5 -1 -9 -9
-9 -8 0 -12 4 -9 9 3 4 7 8 9 8 2 0 6 -4 9 -8z m-3154 -37 c-7 -8 -17 -15 -22
-15 -6 0 -5 7 2 15 7 8 17 15 22 15 6 0 5 -7 -2 -15z m3220 -25 c0 -5 -4 -10
-10 -10 -5 0 -10 5 -10 10 0 6 5 10 10 10 6 0 10 -4 10 -10z m-3293 -6 c-3 -3
-12 -4 -19 -1 -8 3 -5 6 6 6 11 1 17 -2 13 -5z m3873 -26 c0 -5 6 -6 13 -2 8
5 8 2 -2 -9 -7 -9 -21 -17 -30 -17 -14 0 -14 2 -1 10 8 5 10 10 4 10 -6 0 -11
6 -11 14 0 8 6 12 14 9 7 -3 13 -9 13 -15z m-230 -4 c0 -2 -7 -4 -15 -4 -8 0
-15 4 -15 10 0 5 7 7 15 4 8 -4 15 -8 15 -10z m25 -45 c-9 -13 -40 -2 -43 16
-3 11 0 15 8 10 7 -4 14 2 17 16 6 23 7 23 14 -5 5 -16 6 -33 4 -37z m-396 48
c-2 -1 -15 -11 -29 -22 -15 -12 -20 -14 -12 -4 6 9 9 19 5 22 -3 4 4 7 17 7
13 0 21 -1 19 -3z m-2 -31 c-4 -10 0 -12 14 -9 10 3 16 10 12 17 -3 6 -2 7 2
3 13 -11 15 -36 4 -43 -5 -3 -9 -10 -9 -16 0 -7 4 -7 13 1 8 6 17 8 20 4 10
-9 -14 -34 -27 -27 -6 3 -3 -1 7 -9 9 -8 17 -20 17 -28 0 -11 -2 -11 -10 1 -7
10 -10 11 -10 2 0 -7 7 -15 15 -18 8 -4 15 -17 15 -31 0 -13 -4 -22 -10 -18
-5 3 -6 13 -3 23 4 13 2 13 -10 -3 -14 -17 -14 -21 -2 -31 8 -6 12 -13 10 -16
-7 -7 28 -98 37 -98 12 0 10 28 -2 32 -14 4 -23 78 -9 78 5 0 7 -4 4 -10 -3
-5 -2 -10 4 -10 5 0 8 -8 6 -19 -3 -14 1 -18 16 -14 10 3 19 0 19 -6 0 -23 2
-27 22 -48 12 -13 18 -26 15 -30 -4 -3 -7 -2 -7 4 0 15 -28 24 -35 12 -4 -5
-1 -8 7 -7 7 2 12 -2 11 -9 -5 -23 54 -113 89 -137 23 -15 35 -19 31 -10 -3 9
0 12 9 9 7 -3 14 -18 13 -33 0 -22 5 -27 25 -29 16 -1 18 0 7 4 -13 3 -16 10
-12 21 4 10 8 24 9 32 0 8 6 18 11 23 12 9 -23 39 -36 31 -5 -3 -9 2 -9 10 0
23 18 28 29 9 6 -10 11 -13 11 -7 0 17 -37 47 -49 39 -13 -7 -55 4 -47 12 8 8
-13 43 -25 43 -6 0 -8 -4 -4 -9 3 -5 1 -12 -5 -16 -6 -4 -8 -10 -5 -15 3 -5 1
-11 -4 -14 -5 -4 -8 2 -6 11 2 10 4 18 5 18 1 0 3 22 4 49 1 29 7 51 14 54 7
2 9 9 5 15 -3 7 6 -1 22 -16 16 -15 35 -25 42 -23 8 3 16 -1 19 -9 4 -9 17
-13 39 -11 19 1 32 -1 29 -6 -3 -4 -12 -8 -21 -8 -10 0 -13 -6 -9 -16 3 -9 6
-18 6 -21 0 -3 6 0 14 6 11 10 20 10 37 1 17 -10 20 -9 14 1 -5 7 -9 25 -10
41 -2 22 0 26 10 18 7 -6 21 -7 30 -3 12 4 16 3 11 -5 -3 -6 -1 -14 5 -18 7
-4 9 -3 5 4 -3 6 1 17 9 25 11 12 13 22 5 41 -8 22 -7 26 8 26 15 0 15 2 2 10
-8 5 -16 18 -16 29 -1 18 1 19 20 8 11 -6 24 -10 29 -9 4 1 7 -3 7 -10 0 -6 3
-8 7 -5 3 4 11 -1 18 -9 8 -12 19 -14 35 -9 12 4 18 10 13 14 -14 8 -11 53 3
58 19 6 24 -25 6 -32 -14 -5 -14 -7 -2 -15 32 -20 34 -12 17 55 -1 6 -6 16
-10 23 -5 6 -4 12 1 12 15 0 35 -28 30 -42 -3 -7 -2 -22 2 -33 4 -11 3 -25 -2
-32 -7 -9 -5 -18 7 -29 9 -9 15 -24 12 -33 -4 -18 17 -44 27 -33 16 16 55 12
65 -7 15 -27 3 -51 -25 -51 -15 0 -24 -6 -24 -15 0 -8 -4 -15 -10 -15 -5 0
-10 -8 -9 -17 0 -11 3 -13 6 -5 2 6 8 12 13 12 10 0 7 -40 -5 -59 -5 -9 -4
-12 3 -8 6 5 8 0 5 -13 -3 -11 -9 -17 -14 -14 -9 5 -13 -10 -10 -30 1 -5 -5
-4 -13 4 -18 14 -22 25 -6 15 9 -5 9 3 1 44 -1 2 -8 -2 -17 -9 -12 -11 -18
-10 -32 5 -9 10 -12 15 -5 11 10 -5 11 12 3 34 -1 3 -2 9 -1 13 1 4 -11 0 -25
-10 -26 -17 -26 -17 -20 4 9 27 -21 36 -47 14 -16 -13 -17 -13 -12 0 4 11 -3
15 -30 16 -42 1 -46 -11 -7 -25 l27 -10 -32 -1 c-31 -1 -33 1 -33 32 0 22 -3
28 -9 18 -5 -8 -16 -11 -24 -8 -11 4 -14 1 -10 -8 3 -8 8 -13 12 -10 4 2 8 -2
8 -9 0 -8 -8 -11 -17 -9 -10 3 -20 -3 -24 -12 -3 -10 -11 -13 -18 -9 -10 6
-11 5 -1 -8 7 -8 10 -17 7 -21 -3 -3 -1 -14 5 -24 10 -17 11 -16 17 5 5 19 12
22 35 18 31 -5 36 3 18 21 -9 9 -7 11 9 6 12 -3 18 -11 15 -18 -2 -8 0 -22 6
-32 10 -17 10 -17 11 2 0 17 2 17 10 5 5 -8 10 -11 10 -7 0 5 5 5 11 1 8 -5 8
-9 -1 -14 -18 -11 -3 -29 19 -23 22 5 22 30 0 45 -11 8 -11 9 2 5 9 -3 22 0
28 6 8 8 11 8 11 -1 0 -7 -5 -12 -10 -12 -7 0 -7 -6 0 -20 9 -17 7 -20 -15
-26 -14 -3 -23 -9 -20 -13 2 -4 -2 -8 -10 -8 -8 0 -17 8 -20 18 -3 9 -15 19
-26 22 -12 3 -18 10 -14 16 3 6 1 11 -4 11 -6 0 -11 -7 -11 -15 0 -11 -5 -12
-26 -5 -19 8 -25 7 -22 -2 3 -7 18 -13 35 -13 16 0 37 -6 45 -13 16 -13 32
-56 18 -47 -4 3 -10 -2 -14 -10 -7 -19 -32 -19 -40 0 -4 10 -14 13 -34 9 -16
-3 -32 -1 -36 4 -7 12 -48 4 -58 -12 -4 -6 -2 -16 4 -23 8 -10 7 -13 -4 -13
-8 0 -20 11 -26 25 -14 30 -36 32 -79 5 l-33 -20 0 23 c0 33 -15 50 -47 55
-15 2 -33 8 -39 13 -15 12 -47 0 -41 -15 5 -12 -37 -15 -48 -4 -6 5 -110 -33
-122 -45 -3 -4 -11 -3 -17 3 -8 6 -23 -7 -48 -41 -21 -27 -32 -49 -26 -49 6 0
9 -2 7 -5 -11 -10 -49 9 -48 24 0 10 2 11 6 4 2 -7 9 -13 14 -13 6 0 7 5 4 10
-3 6 -2 10 3 10 5 0 13 10 17 23 4 12 8 24 9 27 10 28 49 90 56 90 5 0 6 8 3
18 -6 15 -5 16 13 2 17 -14 18 -13 7 1 -10 12 -10 18 -1 27 9 9 8 12 -6 12
-12 0 -16 5 -12 15 4 10 -1 15 -14 15 -13 0 -20 6 -19 18 0 10 3 12 6 5 6 -16
33 -17 33 -2 0 5 -6 7 -12 3 -7 -4 -1 5 15 21 15 15 25 31 22 34 -4 3 -10 -1
-15 -9 -7 -11 -11 -11 -24 -1 -9 7 -23 11 -31 7 -8 -3 -15 0 -15 6 0 7 13 9
35 5 24 -4 40 -1 50 9 19 20 19 25 -2 17 -12 -5 -10 0 6 16 12 12 20 29 17 37
-3 9 -1 12 4 9 6 -4 10 9 10 29 0 22 5 36 13 36 8 0 9 2 1 8 -17 10 -3 87 15
87 8 0 16 -6 19 -12 2 -7 -3 -13 -11 -13 -15 0 -18 -33 -5 -55 3 -6 4 -18 3
-27 -2 -11 2 -15 12 -11 12 5 12 7 1 15 -8 5 -2 6 17 3 28 -6 29 -5 11 9 -10
8 -24 13 -30 9 -6 -3 -8 -3 -4 2 4 4 2 17 -4 28 -8 16 -8 19 5 14 18 -7 41 15
29 29 -4 4 2 2 12 -6 18 -14 19 -14 7 8 -8 16 -9 27 -1 42 12 23 25 27 17 6z
m444 -33 c13 -16 12 -17 -3 -4 -10 7 -18 15 -18 17 0 8 8 3 21 -13z m159 13
c0 -2 -9 -6 -20 -9 -11 -3 -20 -1 -20 4 0 5 9 9 20 9 11 0 20 -2 20 -4z
m-1355 -25 c3 -5 2 -12 -3 -15 -5 -3 -9 1 -9 9 0 17 3 19 12 6z m275 -41 c0
-5 -2 -10 -4 -10 -3 0 -8 5 -11 10 -3 6 -1 10 4 10 6 0 11 -4 11 -10z m-43 -9
c9 8 13 8 13 0 0 -11 -14 -15 -35 -11 -5 1 -14 -5 -20 -12 -5 -7 -16 -14 -24
-16 -12 -3 -12 -1 0 15 21 27 33 33 43 23 6 -6 15 -5 23 1z m649 -29 c8 -13 8
-20 -1 -29 -10 -9 -15 -9 -19 3 -15 40 0 59 20 26z m54 -87 c0 -8 -7 -15 -16
-15 -14 0 -14 3 -4 15 7 8 14 15 16 15 2 0 4 -7 4 -15z m-767 -15 c3 -11 1
-18 -4 -14 -5 3 -9 12 -9 20 0 20 7 17 13 -6z m-2493 -3 c0 -5 -8 -6 -17 -3
-10 4 -14 4 -10 0 9 -9 -13 -35 -24 -28 -10 6 -61 -19 -84 -42 -14 -15 -18
-15 -26 -3 -11 18 -11 46 0 67 7 14 25 17 85 18 43 1 76 -3 76 -9z m2780 9 c0
-2 -7 -7 -16 -10 -8 -3 -12 -2 -9 4 6 10 25 14 25 6z m-317 -51 c29 1 39 0 22
-2 -30 -4 -60 -23 -38 -23 6 0 9 -10 7 -22 -2 -13 -1 -16 2 -8 8 16 24 30 37
30 5 0 6 -4 3 -9 -4 -5 0 -12 6 -14 8 -3 6 -6 -5 -6 -10 -1 -15 -5 -12 -11 3
-5 3 -10 -2 -11 -42 -4 -70 -19 -36 -19 11 0 20 -6 20 -14 0 -8 -5 -12 -11
-10 -7 3 -20 -3 -31 -12 -11 -8 -14 -13 -7 -9 8 4 11 -1 8 -17 -3 -13 -5 -26
-5 -30 -1 -5 -8 -8 -16 -8 -9 0 -20 -12 -26 -27 -10 -27 -11 -27 -25 -9 -14
19 -14 19 -14 -3 0 -12 4 -19 10 -16 6 3 10 3 10 0 0 -10 -30 -65 -36 -65 -3
0 -2 4 1 10 3 5 7 33 8 62 1 48 -1 53 -23 59 -21 5 -22 7 -8 13 15 7 15 9 0
26 -8 11 -19 17 -24 14 -4 -3 -5 2 -2 10 3 9 10 16 14 16 4 0 10 9 13 21 4 15
2 19 -9 15 -18 -7 -18 -3 6 36 11 18 20 29 20 24 0 -6 7 -1 15 10 10 13 13 14
10 3 -8 -22 21 -20 42 4 14 15 19 16 21 5 2 -10 17 -14 55 -13z m-10 18 c-7
-2 -19 -2 -25 0 -7 3 -2 5 12 5 14 0 19 -2 13 -5z m782 -2 c3 -5 1 -12 -5 -16
-5 -3 -10 1 -10 9 0 18 6 21 15 7z m-976 -47 c-10 -13 -10 -17 2 -25 10 -6 11
-9 1 -9 -10 0 -10 -5 -2 -21 8 -15 8 -24 0 -34 -9 -11 -7 -16 8 -24 12 -6 20
-21 20 -37 0 -14 6 -30 13 -35 10 -6 11 -9 2 -9 -7 0 -13 -6 -13 -13 0 -8 -10
-22 -22 -33 -12 -10 -18 -13 -14 -6 5 8 -1 12 -18 12 -14 0 -26 4 -26 9 0 4
10 8 23 8 41 1 48 3 42 13 -3 6 -1 10 5 10 6 0 8 5 4 11 -4 8 -9 7 -14 -2 -11
-17 -48 -19 -54 -2 -3 7 6 20 19 29 26 17 25 37 0 27 -21 -7 -19 4 6 30 15 16
17 23 7 25 -8 1 -20 13 -27 25 l-14 22 22 -20 22 -19 -5 29 c-5 25 7 55 21 55
3 0 0 -7 -8 -16z m-2295 -19 c6 -17 4 -18 -18 -9 -20 8 -21 24 -2 24 8 0 16
-7 20 -15z m-91 -10 c-3 -9 -8 -14 -10 -11 -3 3 -2 9 2 15 9 16 15 13 8 -4z
m119 -29 c4 -6 8 -7 8 -2 0 5 6 3 13 -3 8 -6 18 -7 22 -3 5 4 5 1 1 -5 -10
-18 -41 -16 -106 6 -51 17 -53 19 -25 23 38 6 78 -2 87 -16z m2553 14 c3 -5 1
-10 -4 -10 -6 0 -11 5 -11 10 0 6 2 10 4 10 3 0 8 -4 11 -10z m272 -35 c0 -8
-5 -13 -10 -12 -5 1 -11 -3 -14 -10 -4 -11 3 -11 45 2 21 7 21 8 5 22 -15 11
-12 11 13 -1 46 -22 55 -37 37 -61 -15 -19 -15 -19 -9 8 4 16 2 27 -4 27 -5 0
-12 0 -15 0 -3 0 -5 -3 -4 -6 0 -4 -5 -11 -13 -15 -10 -7 -9 -9 5 -9 9 0 17
-7 17 -16 0 -13 -3 -14 -15 -4 -20 16 -38 2 -32 -26 2 -13 1 -24 -3 -24 -9 0
-6 -32 4 -48 4 -6 2 -12 -3 -12 -6 0 -11 6 -12 13 0 9 -2 9 -6 -1 -4 -10 -8
-9 -19 5 -18 24 -17 33 2 33 8 0 12 -4 9 -10 -3 -5 -2 -10 4 -10 5 0 9 9 8 20
-1 14 -6 18 -18 15 -10 -3 -21 0 -25 6 -4 8 -3 9 4 5 7 -4 12 -2 12 3 0 6 -6
11 -12 11 -10 0 -10 2 0 9 11 7 11 9 -2 14 -16 6 -29 -7 -33 -32 -1 -7 -6 -18
-12 -24 -8 -8 -11 -4 -11 12 0 12 -4 20 -9 17 -5 -4 -8 2 -6 11 2 10 4 21 4
26 1 4 9 7 19 8 10 0 12 3 5 6 -21 8 -15 27 17 48 16 11 30 23 30 27 0 4 11 3
23 -3 13 -6 24 -17 24 -24z m793 5 c0 -5 -2 -10 -4 -10 -3 0 -8 5 -11 10 -3 6
-1 10 4 10 6 0 11 -4 11 -10z m-3673 -20 c1 -11 -2 -18 -8 -15 -11 7 -12 35
-1 35 4 0 8 -9 9 -20z m3398 10 c3 -5 2 -10 -4 -10 -5 0 -13 5 -16 10 -3 6 -2
10 4 10 5 0 13 -4 16 -10z m-1555 -25 c0 -20 -5 -25 -25 -25 -16 0 -30 -9 -40
-27 l-16 -28 7 35 c10 52 22 70 49 70 20 0 25 -5 25 -25z m125 8 c21 -51 23
-83 5 -93 -13 -7 -30 -1 -71 25 -55 36 -55 39 -5 35 18 -1 26 2 22 9 -4 6 -2
11 3 11 6 0 11 7 11 15 0 21 26 19 35 -2z m1759 8 c3 -5 -1 -11 -9 -14 -9 -4
-12 -1 -8 9 6 16 10 17 17 5z m-3614 -31 c0 -4 -7 -13 -15 -20 -24 -20 -18
-31 10 -18 27 12 49 3 26 -11 -9 -6 -3 -14 23 -30 41 -26 41 -26 21 -75 -9
-20 -12 -42 -9 -48 4 -7 8 -32 9 -58 1 -25 10 -58 20 -73 13 -21 16 -38 12
-71 -4 -24 -2 -57 2 -74 13 -44 -16 -53 -47 -15 -32 40 -43 83 -26 110 22 34
17 57 -19 94 -41 42 -70 128 -64 187 6 45 -10 92 -30 92 -7 0 -13 8 -13 19 0
16 4 17 50 8 28 -5 50 -13 50 -17z m2423 -21 c-5 -16 -7 -17 -20 -3 -12 12
-13 17 -2 30 15 18 29 1 22 -27z m1107 29 c0 -4 -4 -8 -9 -8 -6 0 -12 4 -15 8
-3 5 1 9 9 9 8 0 15 -4 15 -9z m-1072 -15 c-13 -16 -15 -16 -21 1 -4 10 0 14
13 13 14 -1 16 -4 8 -14z m92 13 c0 -3 -4 -8 -10 -11 -5 -3 -10 -1 -10 4 0 6
5 11 10 11 6 0 10 -2 10 -4z m780 -16 c-20 -13 -33 -13 -25 0 3 6 14 10 23 10
15 0 15 -2 2 -10z m296 -27 c-7 -7 -26 7 -26 19 0 6 6 6 15 -2 9 -7 13 -15 11
-17z m-820 -14 c19 -22 19 -22 -3 -8 -13 8 -23 17 -23 21 0 12 6 9 26 -13z
m-812 -4 c-4 -8 -11 -12 -16 -9 -6 4 -5 10 3 15 19 12 19 11 13 -6z m283 9
c-3 -3 -12 -4 -19 -1 -8 3 -5 6 6 6 11 1 17 -2 13 -5z m1370 -16 c-3 -8 -6 -5
-6 6 -1 11 2 17 5 13 3 -3 4 -12 1 -19z m-1052 -8 c-3 -5 -12 -10 -18 -10 -7
0 -6 4 3 10 19 12 23 12 15 0z m-48 -32 c-3 -7 -5 -2 -5 12 0 14 2 19 5 13 2
-7 2 -19 0 -25z m-138 15 c-4 -22 2 -43 12 -43 5 0 7 5 4 10 -3 6 1 10 10 10
10 0 14 5 10 13 -4 6 1 3 9 -7 15 -18 21 -13 18 15 -1 9 47 -2 54 -12 3 -5 -1
-9 -9 -9 -8 0 -17 -9 -20 -21 -4 -16 -12 -20 -34 -18 -32 4 -56 -8 -47 -22 7
-12 -19 -7 -28 5 -4 6 -2 18 3 27 13 25 11 36 -6 36 -8 0 -15 -4 -15 -9 0 -4
5 -8 11 -8 5 0 7 -5 4 -10 -9 -15 -25 -2 -25 22 0 14 5 18 15 15 8 -4 17 -2
20 3 7 12 15 13 14 3z m1352 -136 c11 -103 11 -122 -2 -145 -8 -15 -22 -28
-32 -30 -14 -3 -17 5 -18 40 -1 24 -1 46 0 50 0 4 3 47 7 95 11 177 25 173 45
-10z m-1164 127 c-3 -3 -12 -4 -19 -1 -8 3 -5 6 6 6 11 1 17 -2 13 -5z m-261
-19 c-3 -8 2 -19 12 -24 9 -6 12 -11 7 -11 -6 0 -17 6 -24 13 -11 10 -13 9 -8
-5 4 -11 2 -15 -7 -12 -11 4 -11 10 -2 30 12 25 32 34 22 9z m354 -3 c7 -9 7
-9 -2 -2 -8 6 -17 5 -27 -3 -10 -8 -13 -8 -8 0 4 6 1 14 -5 17 -7 2 -3 4 10 2
12 -1 27 -8 32 -14z m-116 -8 c3 -8 2 -12 -4 -9 -6 3 -10 10 -10 16 0 14 7 11
14 -7z m-754 -19 c0 -21 -7 -26 -44 -36 -34 -8 -48 -18 -59 -41 -18 -37 -30
-23 -17 20 11 41 57 81 93 82 22 0 27 -4 27 -25z m880 -1 c0 -2 -9 -4 -21 -4
-11 0 -18 4 -14 10 5 8 35 3 35 -6z m-50 2 c0 -3 -4 -8 -10 -11 -5 -3 -10 -1
-10 4 0 6 5 11 10 11 6 0 10 -2 10 -4z m804 -14 c3 -5 -1 -9 -9 -9 -8 0 -12 4
-9 9 3 4 7 8 9 8 2 0 6 -4 9 -8z m-1498 -53 c15 -42 18 -119 4 -119 -5 0 -10
7 -10 15 0 9 -11 20 -25 25 -23 9 -25 13 -19 52 3 24 8 49 10 56 7 22 27 8 40
-29z m1378 25 c3 -8 12 -11 21 -8 13 5 14 2 5 -21 -6 -15 -8 -30 -5 -33 3 -3
5 0 5 6 0 6 7 9 16 5 13 -5 15 -1 10 18 -6 21 -6 22 4 6 7 -10 9 -21 6 -24 -3
-4 -1 -12 5 -19 6 -8 8 -21 5 -30 -5 -14 -4 -15 8 -5 11 9 15 6 20 -15 6 -21
9 -24 21 -14 14 11 19 7 16 -12 0 -5 2 -7 7 -5 4 1 8 -2 9 -7 1 -5 7 -12 15
-17 14 -9 15 -12 17 -55 1 -20 5 -25 18 -20 10 4 14 4 10 0 -4 -4 -1 -14 6
-22 8 -11 8 -14 0 -9 -6 4 -14 3 -18 -3 -3 -5 1 -10 9 -10 9 0 13 -6 10 -14
-3 -8 -1 -16 3 -19 5 -3 6 -31 3 -61 -3 -32 -2 -56 3 -56 5 0 4 -7 -3 -15 -18
-21 -33 -19 -27 5 3 11 2 20 -2 20 -4 0 -13 12 -19 26 -7 14 -8 23 -3 20 7 -5
8 34 1 42 -3 3 -7 19 -9 36 0 8 -10 17 -20 21 -11 3 -18 11 -16 18 3 7 1 26
-4 42 -6 24 -13 29 -31 27 -13 -1 -21 1 -17 4 4 4 2 13 -4 20 -6 8 -8 22 -5
31 6 15 5 16 -5 6 -7 -7 -17 -13 -23 -13 -6 0 -5 5 2 12 15 15 15 28 1 28 -5
0 -7 -4 -4 -10 3 -5 1 -10 -4 -10 -6 0 -11 4 -11 10 0 5 -6 7 -14 4 -13 -5
-30 28 -27 50 1 5 -4 4 -12 -2 -14 -12 -27 -6 -27 12 0 6 4 5 9 -2 6 -11 9 -9
13 6 5 16 2 20 -15 16 -15 -2 -18 -1 -10 7 6 6 9 18 6 27 -4 10 -2 13 5 8 7
-4 12 -3 12 2 0 14 29 10 34 -4z m-634 -4 c0 -5 -2 -10 -4 -10 -3 0 -8 5 -11
10 -3 6 -1 10 4 10 6 0 11 -4 11 -10z m-33 -6 c-3 -3 -12 -4 -19 -1 -8 3 -5 6
6 6 11 1 17 -2 13 -5z m90 -30 c-3 -3 -12 -4 -19 -1 -8 3 -5 6 6 6 11 1 17 -2
13 -5z m-2992 -87 c11 -45 9 -77 -5 -77 -12 0 -30 66 -30 110 0 45 20 27 35
-33z m2876 40 c-10 -9 -11 -8 -5 6 3 10 9 15 12 12 3 -3 0 -11 -7 -18z m84 -2
c-1 -14 1 -28 6 -30 4 -3 4 -18 -1 -34 -7 -25 -5 -29 10 -28 23 1 47 37 25 37
-18 0 -19 11 -2 30 10 12 9 12 -5 2 -11 -9 -18 -10 -23 -2 -3 5 -1 10 5 10 6
0 9 4 5 9 -10 16 15 23 32 9 10 -8 14 -8 10 -1 -10 17 9 26 31 14 10 -5 30
-11 45 -13 14 -2 29 -7 33 -10 3 -4 12 -4 19 -2 7 3 16 1 19 -4 3 -5 -5 -8
-19 -7 -24 3 -43 -21 -22 -28 9 -3 8 -9 -3 -23 -14 -17 -14 -18 2 -6 12 10 18
10 24 1 4 -8 3 -9 -4 -5 -7 4 -12 2 -12 -4 0 -6 -10 -10 -22 -8 -11 2 -23 -3
-25 -10 -3 -7 1 -10 11 -6 9 4 16 1 16 -6 0 -7 8 -10 20 -7 24 6 32 -4 19 -23
-5 -8 -9 -10 -9 -4 0 10 -26 23 -55 28 -5 1 -10 11 -9 22 0 11 -5 21 -10 22
-6 0 -19 2 -28 4 -9 2 -17 -1 -17 -6 1 -5 -5 -13 -13 -17 -7 -5 -8 -9 -2 -9 6
0 11 -6 11 -14 0 -10 -9 -14 -29 -11 -17 2 -26 0 -22 -6 3 -6 2 -18 -2 -27 -9
-20 -11 -28 -13 -43 0 -6 -8 -8 -17 -5 -8 3 -27 -2 -41 -11 -25 -17 -26 -17
-15 3 10 19 9 21 -13 18 -22 -2 -23 0 -14 17 8 16 6 24 -13 39 -13 11 -19 19
-14 20 5 0 18 -8 29 -17 22 -19 22 -19 2 30 -3 7 1 21 8 31 11 15 16 16 22 6
5 -9 4 -11 -3 -6 -7 4 -12 4 -12 -1 0 -4 12 -13 26 -20 22 -10 24 -10 14 3 -7
8 -9 14 -5 14 4 0 2 7 -5 15 -15 18 -6 33 28 47 16 6 22 12 14 15 -10 4 -10 8
-1 19 16 19 18 18 14 -11z m-145 5 c0 -5 -5 -10 -11 -10 -5 0 -7 5 -4 10 3 6
8 10 11 10 2 0 4 -4 4 -10z m590 -10 c0 -11 -4 -20 -10 -20 -5 0 -10 9 -10 20
0 11 5 20 10 20 6 0 10 -9 10 -20z m99 -35 c0 -5 -4 -3 -9 5 -5 8 -9 22 -9 30
0 16 17 -16 18 -35z m51 26 c0 -5 -7 -11 -14 -14 -10 -4 -13 -1 -9 9 6 15 23
19 23 5z m-1415 -31 c0 -22 -29 -18 -33 3 -3 14 1 18 15 15 10 -2 18 -10 18
-18z m633 0 c-7 -10 -14 -17 -17 -15 -4 4 18 35 25 35 2 0 -1 -9 -8 -20z m421
-7 c0 -5 -4 -17 -9 -28 -8 -17 -8 -16 -7 8 1 15 5 27 9 27 4 0 8 -3 7 -7z
m-204 -13 c3 -5 1 -10 -4 -10 -6 0 -11 5 -11 10 0 6 2 10 4 10 3 0 8 -4 11
-10z m-999 -70 c35 -14 161 -1 168 16 7 17 36 18 36 1 0 -25 -72 -82 -148
-116 -53 -25 -125 57 -114 128 l5 34 14 -27 c8 -15 25 -31 39 -36z m1071 36
c0 -8 -8 -11 -21 -8 -19 5 -19 6 0 13 10 4 19 8 20 8 0 1 1 -5 1 -13z m396 -9
c-4 -6 10 -8 43 -4 42 4 51 2 71 -19 12 -13 26 -24 31 -24 5 0 9 -6 9 -14 0
-19 -16 -16 -41 7 -11 9 -34 18 -50 19 -17 0 -50 2 -74 4 -23 2 -40 -1 -38 -5
3 -4 -8 -15 -23 -24 -22 -13 -35 -14 -64 -6 -20 5 -39 14 -42 19 -3 5 -19 5
-38 -1 -41 -12 -47 -11 -24 2 26 15 77 22 77 11 0 -5 14 -12 30 -14 17 -3 30
0 30 5 0 5 8 3 17 -4 9 -8 14 -9 11 -4 -4 6 7 20 23 30 16 11 27 25 25 31 -3
7 3 10 15 7 10 -3 16 -10 12 -16z m224 -20 c0 -7 -9 -13 -19 -13 -18 0 -18 1
-2 13 10 7 18 13 19 13 1 0 2 -6 2 -13z m-648 -24 c12 3 19 2 16 -3 -8 -13
-45 -19 -45 -7 0 7 -5 5 -10 -3 -8 -13 -10 -13 -10 1 0 21 12 32 21 18 4 -7
16 -9 28 -6z m95 -19 c4 -10 2 -13 -6 -8 -7 5 -9 2 -5 -9 4 -11 -1 -18 -14
-22 -10 -4 -17 -10 -14 -15 3 -4 -2 -11 -11 -14 -12 -4 -15 -2 -10 9 3 8 0 15
-7 15 -7 0 -4 5 6 11 9 5 22 7 29 3 7 -4 8 -3 4 5 -4 6 -2 18 4 26 15 19 17
19 24 -1z m46 -4 c-11 -20 -30 -19 -30 1 0 6 4 8 9 4 5 -3 12 -1 16 5 12 19
16 10 5 -10z m-3155 -28 c-3 -3 -11 0 -18 7 -9 10 -8 11 6 5 10 -3 15 -9 12
-12z m2835 -22 c0 -5 -5 -10 -11 -10 -5 0 -7 5 -4 10 3 6 8 10 11 10 2 0 4 -4
4 -10z m54 -29 c3 -4 -10 -7 -28 -7 -19 1 -33 3 -31 6 6 9 54 10 59 1z m656
-25 c0 -8 -7 -16 -15 -20 -9 -3 -12 -12 -8 -22 5 -13 3 -15 -7 -9 -9 5 -11 4
-6 -3 10 -16 24 -15 42 3 14 13 13 15 -8 16 -17 1 -18 3 -5 6 9 2 17 9 17 14
0 6 8 5 20 -1 14 -7 26 -8 39 0 30 16 34 12 14 -14 -10 -13 -22 -22 -27 -19
-14 9 -26 -20 -14 -34 7 -9 7 -13 -1 -13 -10 0 -15 13 -12 33 2 14 -15 7 -32
-13 -16 -19 -44 -19 -32 0 2 4 -8 10 -23 13 -15 3 -29 1 -32 -3 -9 -15 -48 -7
-53 10 -2 8 0 24 4 35 4 11 8 14 8 8 1 -18 21 -16 21 1 0 14 22 20 88 24 13 1
22 -4 22 -12z m180 4 c0 -5 -2 -10 -4 -10 -3 0 -8 5 -11 10 -3 6 -1 10 4 10 6
0 11 -4 11 -10z m-3593 -15 c0 -8 -6 -15 -14 -15 -7 0 -13 7 -13 15 0 8 6 15
13 15 8 0 14 -7 14 -15z m2743 -5 c0 -5 -7 -7 -15 -4 -8 4 -15 8 -15 10 0 2 7
4 15 4 8 0 15 -4 15 -10z m-25 -28 c-3 -3 -11 0 -18 7 -9 10 -8 11 6 5 10 -3
15 -9 12 -12z m489 1 c-8 -8 -14 -22 -15 -31 0 -12 -2 -13 -6 -3 -5 11 -7 11
-14 0 -6 -10 -9 -7 -9 11 -1 22 -2 23 -11 7 -5 -9 -7 -23 -4 -30 4 -6 0 -4 -8
6 -10 12 -17 14 -22 8 -3 -6 -12 -11 -18 -10 -9 0 -9 2 1 6 6 2 12 11 12 19 0
9 5 12 10 9 6 -3 10 -2 10 4 0 11 23 18 62 18 23 0 25 -2 12 -14z m-203 -3 c3
-21 5 -26 23 -53 10 -15 16 -30 12 -34 -3 -3 -6 -1 -6 7 0 10 -3 10 -16 0 -12
-11 -15 -11 -12 1 2 8 -3 13 -10 11 -8 -1 -11 2 -7 8 3 5 -3 10 -13 10 -11 0
-23 8 -27 18 -5 14 -4 15 6 5 22 -22 42 -16 37 12 -3 14 -1 25 3 25 5 0 10 -4
10 -10z m96 -7 c2 -6 -10 -16 -28 -22 -27 -9 -30 -9 -25 5 4 12 2 15 -9 10 -9
-3 -15 0 -15 8 0 16 72 15 77 -1z m153 -23 c0 -4 -11 -10 -25 -12 -20 -4 -25
-1 -24 16 0 11 3 15 6 9 7 -20 23 -15 16 5 -6 15 -5 15 10 3 9 -7 17 -17 17
-21z m-334 -12 c4 -5 2 -8 -5 -8 -7 0 -9 -5 -5 -12 5 -7 11 -5 21 7 11 16 13
16 13 3 0 -26 -23 -27 -53 -4 l-27 22 24 -1 c13 0 28 -3 32 -7z m751 -24 c-3
-3 -12 -4 -19 -1 -8 3 -5 6 6 6 11 1 17 -2 13 -5z m-34 -26 c6 -21 5 -22 -7
-5 -10 13 -15 14 -18 6 -3 -9 -6 -7 -11 4 -5 12 -1 17 12 17 11 0 21 -9 24
-22z m-3 -46 c0 -15 2 -15 10 -2 8 13 10 13 10 -2 0 -14 -8 -17 -40 -15 -22 1
-40 6 -40 11 0 4 11 6 23 4 15 -3 24 0 24 8 0 7 -7 10 -16 7 -14 -4 -14 -3 -1
5 17 13 30 6 30 -16z m4 -79 c-9 -35 -13 -43 -25 -43 -12 0 -11 12 1 44 13 35
32 34 24 -1z m-251 -20 c-5 -12 -3 -14 7 -8 10 6 12 4 7 -7 -3 -9 1 -24 8 -35
8 -10 15 -25 15 -33 0 -9 -6 -6 -16 8 -11 16 -22 21 -35 17 -14 -5 -17 -3 -13
10 4 9 3 15 -2 14 -24 -4 -23 3 3 26 34 29 34 29 26 8z m-33 -2 c0 -5 -7 -12
-16 -15 -8 -3 -12 -10 -9 -16 15 -24 13 -50 -2 -50 -9 0 -13 3 -10 7 4 3 -1
12 -11 20 -9 8 -11 12 -4 8 7 -4 12 0 12 10 0 11 -5 15 -16 11 -9 -3 -12 -2
-9 5 4 6 13 8 21 5 8 -3 17 1 20 9 7 16 24 21 24 6z m322 -23 c-8 -8 -9 -4 -5
13 4 13 8 18 11 10 2 -7 -1 -18 -6 -23z m-65 -14 c-3 -3 -12 -4 -19 -1 -8 3
-5 6 6 6 11 1 17 -2 13 -5z m26 -11 c-4 -10 -2 -14 4 -10 14 9 22 -75 12 -120
-4 -18 -3 -33 2 -33 5 0 9 -5 9 -10 0 -6 -6 -10 -14 -8 -8 2 -22 -6 -31 -17
-14 -19 -15 -18 -5 9 15 41 5 44 -32 10 -18 -16 -25 -19 -15 -7 12 14 15 23 7
28 -15 9 -1 28 16 21 13 -5 18 6 15 27 0 4 3 7 8 7 5 0 11 9 14 20 3 11 1 18
-4 14 -5 -3 -9 2 -9 10 0 9 5 15 11 14 6 -2 13 2 16 9 3 7 -4 10 -19 6 -13 -3
-19 -1 -12 4 6 4 13 16 17 26 3 9 9 17 11 17 3 0 2 -7 -1 -17z m-528 -23 c-3
-5 -12 -10 -18 -10 -7 0 -6 4 3 10 19 12 23 12 15 0z m405 -8 c0 -10 -5 -10
-22 -1 -34 17 -34 19 -5 17 15 -1 27 -8 27 -16z m53 3 c-3 -9 -8 -14 -10 -11
-3 3 -2 9 2 15 9 16 15 13 8 -4z m-105 -19 c-7 -8 -17 -12 -22 -9 -4 3 -2 9 5
14 22 13 31 11 17 -5z m-404 -12 c3 -8 2 -12 -4 -9 -6 3 -10 10 -10 16 0 14 7
11 14 -7z m533 -5 c-9 -6 -14 -15 -11 -21 4 -7 2 -8 -5 -4 -14 9 3 36 23 36 6
0 3 -5 -7 -11z m-117 -15 c0 -8 -5 -12 -10 -9 -6 4 -8 11 -5 16 9 14 15 11 15
-7z m-460 -8 c0 -3 -4 -8 -10 -11 -5 -3 -10 -1 -10 4 0 6 5 11 10 11 6 0 10
-2 10 -4z m-660 -40 c0 -3 -4 -8 -10 -11 -5 -3 -10 -1 -10 4 0 6 5 11 10 11 6
0 10 -2 10 -4z m1170 -10 c0 -2 -8 -10 -17 -17 -16 -13 -17 -12 -4 4 13 16 21
21 21 13z m-1187 -51 c0 -5 -8 -12 -17 -13 -12 -3 -16 0 -11 8 5 7 1 11 -11
10 -32 -4 -41 -1 -41 14 0 11 7 12 39 2 22 -6 40 -15 41 -21z m112 -55 c3 -6
-1 -7 -9 -4 -18 7 -21 14 -7 14 6 0 13 -4 16 -10z m55 -66 c0 -8 6 -14 14 -14
23 0 30 -21 12 -38 -10 -11 -16 -12 -16 -4 0 7 6 12 13 12 6 0 4 5 -6 11 -10
6 -25 8 -34 5 -12 -5 -13 -3 -6 6 6 7 9 21 8 31 -2 9 1 15 6 11 5 -3 9 -12 9
-20z m0 -69 c0 -17 -2 -18 -25 -9 -13 5 -14 8 -3 15 19 13 28 11 28 -6z m143
-21 c18 -10 39 -25 47 -34 8 -9 28 -25 43 -35 37 -24 25 -33 -16 -13 -18 9
-40 19 -50 22 -10 3 -17 13 -15 23 2 10 -7 22 -20 28 -12 7 -25 15 -29 19 -11
11 7 6 40 -10z m68 -11 c13 -16 12 -17 -3 -4 -17 13 -22 21 -14 21 2 0 10 -8
17 -17z m-427 -28 c11 -8 15 -15 10 -15 -6 0 -19 7 -30 15 -10 8 -14 14 -9 14
6 0 19 -6 29 -14z m96 -115 c0 -5 -4 -10 -10 -10 -5 0 -10 5 -10 10 0 6 5 10
10 10 6 0 10 -4 10 -10z m-85 -70 c3 -6 -1 -7 -9 -4 -18 7 -21 14 -7 14 6 0
13 -4 16 -10z m1435 -61 c12 -44 6 -92 -14 -108 -10 -8 -13 2 -15 51 -1 34 -2
64 -3 67 -5 46 19 38 32 -10z m-1520 -154 c0 -12 -19 -12 -23 0 -4 9 -1 12 9
8 7 -3 14 -7 14 -8z m-54 -62 c-7 -7 -26 7 -26 19 0 6 6 6 15 -2 9 -7 13 -15
11 -17z m16 -28 c-5 -29 -19 -34 -19 -7 0 13 12 30 23 32 1 0 -1 -11 -4 -25z"/>
<path d="M1720 5730 c0 -5 5 -10 11 -10 5 0 7 5 4 10 -3 6 -8 10 -11 10 -2 0
-4 -4 -4 -10z"/>
<path d="M1504 5675 c-4 -8 -1 -22 6 -30 10 -12 10 -15 0 -15 -24 0 1 -15 26
-15 28 -1 28 -2 12 42 -13 35 -35 44 -44 18z"/>
<path d="M1638 5674 c-33 -18 -39 -49 -8 -39 28 9 48 -35 32 -70 -14 -31 -16
-65 -3 -65 5 0 11 7 15 15 3 9 18 15 37 15 l32 0 -8 73 c-3 39 -8 73 -9 74
-11 11 -66 9 -88 -3z"/>
<path d="M1863 5660 c-3 -10 -12 -21 -22 -24 -9 -3 9 -2 39 1 30 4 65 6 77 5
26 -2 39 13 21 24 -7 4 -34 9 -61 11 -41 2 -50 0 -54 -17z"/>
<path d="M4851 4406 c-76 -34 -108 -55 -121 -79 -21 -37 -9 -41 41 -12 57 32
69 32 69 -4 0 -16 9 -39 20 -52 19 -22 21 -23 30 -6 12 18 56 23 80 7 9 -5 19
-5 27 2 17 14 16 28 -1 28 -21 0 -30 20 -16 33 9 9 15 7 26 -7 8 -11 14 -14
14 -8 0 16 30 15 34 0 3 -7 7 -25 10 -41 l6 -27 29 21 c48 35 46 55 -7 94 -80
58 -180 80 -241 51z"/>
<path d="M4448 3413 c7 -3 16 -2 19 1 4 3 -2 6 -13 5 -11 0 -14 -3 -6 -6z"/>
<path d="M4883 2985 c0 -8 4 -12 9 -9 4 3 8 9 8 15 0 5 -4 9 -8 9 -5 0 -9 -7
-9 -15z"/>
<path d="M3982 2972 c-23 -15 -29 -32 -11 -32 5 0 7 5 4 10 -3 6 0 10 7 10 8
0 22 6 32 13 26 19 -3 18 -32 -1z"/>
<path d="M4905 2970 c-3 -6 1 -7 9 -4 18 7 21 14 7 14 -6 0 -13 -4 -16 -10z"/>
<path d="M4150 2954 c0 -4 8 -13 18 -20 10 -8 12 -13 5 -14 -7 0 -13 -5 -13
-11 0 -6 7 -9 15 -5 8 3 15 0 15 -6 0 -6 3 -9 6 -6 8 8 -24 68 -36 68 -6 0
-10 -3 -10 -6z"/>
<path d="M5030 2935 c0 -8 2 -15 4 -15 2 0 6 7 10 15 3 8 1 15 -4 15 -6 0 -10
-7 -10 -15z"/>
<path d="M3935 2930 c3 -5 8 -10 11 -10 2 0 4 5 4 10 0 6 -5 10 -11 10 -5 0
-7 -4 -4 -10z"/>
<path d="M4995 2919 c-4 -6 -5 -12 -2 -15 2 -3 7 2 10 11 7 17 1 20 -8 4z"/>
<path d="M4004 2901 c5 -8 3 -17 -5 -22 -12 -7 -11 -9 1 -9 13 0 13 -1 0 -10
-22 -14 -33 -12 -26 5 8 21 -1 19 -13 -3 -6 -12 -5 -23 6 -37 13 -16 15 -17
10 -2 -4 9 -2 17 3 17 6 0 10 -4 10 -10 0 -15 30 -12 31 3 1 6 2 19 3 27 0 8
12 17 26 20 17 4 21 8 12 14 -6 4 -17 4 -22 1 -6 -4 -18 -1 -27 7 -14 11 -16
11 -9 -1z"/>
<path d="M5000 2876 c0 -2 7 -9 15 -16 13 -11 14 -10 9 4 -5 14 -24 23 -24 12z"/>
<path d="M5005 2810 c2 -19 6 -46 10 -60 4 -14 7 -30 7 -37 1 -7 5 -10 10 -7
4 3 4 13 -1 21 -6 11 -3 22 10 36 10 11 16 23 13 26 -3 3 -9 -1 -13 -8 -5 -8
-14 -10 -21 -6 -9 6 -6 12 11 22 13 8 17 12 9 10 -8 -2 -20 5 -27 17 -10 19
-11 17 -8 -14z"/>
<path d="M3796 2775 c-16 -19 -32 -32 -37 -30 -4 3 -10 1 -13 -4 -4 -5 -2 -12
4 -16 5 -3 10 -17 10 -31 0 -13 5 -24 10 -24 12 0 12 2 1 34 -7 18 -6 28 4 36
9 7 15 8 20 0 3 -5 2 -10 -4 -10 -6 0 -8 -7 -4 -16 4 -11 8 -12 13 -4 5 9 9 9
14 1 4 -6 5 -15 2 -20 -3 -4 6 -6 19 -3 14 2 22 8 19 13 -3 5 -9 7 -13 5 -4
-3 -18 8 -30 25 -14 19 -18 30 -9 28 28 -3 36 2 34 26 -1 33 -6 32 -40 -10z"/>
<path d="M5070 2801 c0 -5 7 -12 16 -15 14 -5 15 -4 4 9 -14 17 -20 19 -20 6z"/>
<path d="M3995 2780 c4 -6 11 -8 16 -5 14 9 11 15 -7 15 -8 0 -12 -5 -9 -10z"/>
<path d="M3943 2762 c0 -12 5 -22 9 -22 11 0 10 12 -2 30 -7 12 -9 10 -7 -8z"/>
<path d="M3890 2740 c-13 -8 -12 -10 3 -10 9 0 17 5 17 10 0 12 -1 12 -20 0z"/>
<path d="M3976 2734 c-5 -14 -4 -15 9 -4 17 14 19 20 6 20 -5 0 -12 -7 -15
-16z"/>
<path d="M5042 2738 c3 -7 13 -15 23 -17 17 -3 17 -2 3 13 -20 19 -31 21 -26
4z"/>
<path d="M3689 2727 c6 -8 7 -18 3 -22 -4 -5 -1 -5 6 -1 10 6 10 11 1 22 -6 8
-14 14 -16 14 -3 0 0 -6 6 -13z"/>
<path d="M4113 2696 c5 -14 34 -16 34 -2 0 6 -9 12 -19 12 -10 0 -17 -5 -15
-10z"/>
<path d="M5036 2696 c-18 -9 -24 -15 -15 -18 8 -3 23 3 33 13 22 22 21 22 -18
5z"/>
<path d="M3713 2683 c0 -9 9 -18 20 -21 12 -3 15 -7 7 -12 -8 -5 -7 -10 2 -18
10 -8 18 -8 28 0 12 8 12 9 -2 4 -20 -6 -25 10 -5 17 6 2 0 8 -15 12 -16 4
-26 11 -23 15 3 5 2 11 -3 14 -5 3 -9 -2 -9 -11z"/>
<path d="M3954 2680 c0 -10 6 -16 13 -13 9 4 11 0 6 -13 -6 -16 -4 -17 9 -6
22 18 31 -7 12 -33 -8 -10 -14 -26 -14 -34 0 -14 2 -14 9 -2 7 11 13 12 24 3
11 -9 14 -9 14 3 0 8 -4 12 -9 9 -4 -3 -8 0 -8 5 0 6 4 11 8 11 5 0 7 13 4 30
-2 16 -8 28 -12 25 -4 -3 -18 4 -32 14 -22 18 -24 18 -24 1z"/>
<path d="M4000 2689 c0 -5 5 -7 10 -4 6 3 10 8 10 11 0 2 -4 4 -10 4 -5 0 -10
-5 -10 -11z"/>
<path d="M4083 2681 c0 -11 5 -17 9 -15 4 3 8 0 8 -5 0 -6 -4 -11 -10 -11 -5
0 -7 -7 -4 -15 4 -11 2 -13 -9 -9 -9 3 -18 12 -21 20 -3 9 -10 13 -15 9 -13
-8 -2 -35 12 -32 7 1 11 -6 11 -15 -1 -10 5 -18 13 -18 8 0 12 4 9 8 -2 4 5 9
16 9 15 2 18 -1 10 -9 -12 -12 -5 -38 11 -38 6 0 7 3 4 7 -4 3 -2 12 4 19 8
10 7 17 -4 28 -8 8 -18 12 -23 8 -4 -4 0 5 9 21 15 23 15 27 2 27 -8 0 -15 7
-15 15 0 8 -4 15 -9 15 -6 0 -9 -9 -8 -19z"/>
<path d="M5059 2673 c-7 -10 -9 -15 -5 -11 5 4 15 0 23 -10 13 -15 13 -15 4 4
-6 12 -7 24 -4 28 3 3 4 6 1 6 -3 0 -12 -8 -19 -17z"/>
<path d="M3836 2672 c-3 -5 1 -9 9 -9 8 0 12 4 9 9 -3 4 -7 8 -9 8 -2 0 -6 -4
-9 -8z"/>
<path d="M3790 2660 c-16 -11 -15 -11 18 -15 18 -2 20 0 11 11 -13 16 -10 16
-29 4z"/>
<path d="M5134 2645 c1 -8 6 -18 11 -22 4 -5 5 -2 0 6 -6 11 -4 13 8 8 23 -9
21 0 -2 13 -15 7 -19 7 -17 -5z"/>
<path d="M3627 2633 c-11 -3 -16 -10 -13 -20 3 -8 6 -22 6 -30 0 -13 2 -13 16
-2 10 8 12 15 5 17 -6 2 -11 8 -11 13 0 6 4 8 8 5 5 -3 9 1 9 9 0 8 -1 14 -1
14 -1 -1 -9 -3 -19 -6z"/>
<path d="M3835 2631 c-3 -5 -1 -12 5 -16 5 -3 10 1 10 9 0 18 -6 21 -15 7z"/>
<path d="M4970 2624 c-11 -12 -11 -15 1 -12 8 2 13 -3 12 -9 -2 -7 2 -13 7
-13 13 0 13 17 0 25 -6 4 -8 11 -5 16 10 15 -1 10 -15 -7z"/>
<path d="M5057 2634 c-4 -4 -7 -16 -7 -26 0 -15 3 -17 19 -8 13 6 22 7 26 0 3
-5 13 -6 21 -3 15 5 15 7 0 15 -9 5 -13 15 -9 21 5 9 3 9 -8 0 -10 -8 -19 -9
-25 -3 -6 6 -13 7 -17 4z m18 -14 c3 -5 1 -10 -4 -10 -6 0 -11 5 -11 10 0 6 2
10 4 10 3 0 8 -4 11 -10z"/>
<path d="M5005 2620 c4 -6 11 -8 16 -5 14 9 11 15 -7 15 -8 0 -12 -5 -9 -10z"/>
<path d="M3781 2591 c-7 -13 -8 -21 -2 -17 6 4 20 2 31 -4 13 -7 20 -7 20 0 0
5 -6 10 -14 10 -8 0 -16 8 -18 18 -3 14 -6 13 -17 -7z"/>
<path d="M3850 2595 c-7 -9 -8 -15 -2 -15 5 0 12 7 16 15 3 8 4 15 2 15 -2 0
-9 -7 -16 -15z"/>
<path d="M3920 2606 c0 -2 7 -7 16 -10 8 -3 12 -2 9 4 -6 10 -25 14 -25 6z"/>
<path d="M3871 2574 c0 -11 3 -14 6 -6 3 7 2 16 -1 19 -3 4 -6 -2 -5 -13z"/>
<path d="M3920 2574 c0 -8 5 -12 10 -9 6 4 8 11 5 16 -9 14 -15 11 -15 -7z"/>
<path d="M4171 2553 c0 -13 -6 -23 -12 -23 -5 0 -7 -5 -3 -11 10 -18 26 6 21
32 -4 24 -4 24 -6 2z"/>
<path d="M5275 2562 c4 -4 12 -7 18 -7 7 0 12 -5 12 -12 0 -6 3 -14 7 -18 3
-4 5 0 4 9 -3 20 -12 29 -32 32 -9 1 -13 -1 -9 -4z"/>
<path d="M3890 2557 c0 -2 6 -10 14 -16 11 -9 16 -9 22 1 4 7 4 10 -1 6 -4 -4
-14 -3 -22 3 -7 6 -13 9 -13 6z"/>
<path d="M4905 2551 c-6 -11 13 -26 22 -17 4 3 1 6 -6 6 -7 0 -9 5 -6 10 3 6
4 10 1 10 -3 0 -7 -4 -11 -9z"/>
<path d="M3860 2531 c0 -6 4 -13 10 -16 6 -3 7 1 4 9 -7 18 -14 21 -14 7z"/>
<path d="M3893 2515 c0 -8 4 -12 9 -9 5 3 6 10 3 15 -9 13 -12 11 -12 -6z"/>
<path d="M4029 2440 c-2 -14 -5 -22 -14 -43 -4 -10 -5 -21 -1 -24 3 -3 1 -11
-4 -18 -7 -8 -5 -12 5 -12 8 0 12 4 9 9 -3 4 -2 8 3 8 4 0 8 20 9 45 1 40 -4
62 -7 35z"/>
<path d="M5346 2431 c-4 -5 -2 -12 3 -15 5 -4 12 -2 15 3 4 5 2 12 -3 15 -5 4
-12 2 -15 -3z"/>
<path d="M3971 2384 c0 -11 3 -14 6 -6 3 7 2 16 -1 19 -3 4 -6 -2 -5 -13z"/>
<path d="M3991 2374 c0 -11 3 -14 6 -6 3 7 2 16 -1 19 -3 4 -6 -2 -5 -13z"/>
<path d="M3965 2350 c-3 -5 -3 -10 2 -10 4 0 2 -4 -6 -9 -7 -5 -10 -14 -7 -20
11 -18 26 -2 24 24 -3 28 -4 29 -13 15z"/>
<path d="M2926 3452 c-3 -6 -1 -14 5 -17 15 -10 25 3 12 16 -7 7 -13 7 -17 1z"/>
<path d="M4673 2641 c-1 -13 3 -18 12 -15 8 3 11 12 8 20 -7 20 -18 17 -20 -5z"/>
<path d="M4589 2598 c-14 -30 1 -83 16 -59 3 6 13 8 23 5 14 -5 14 -4 2 4 -8
6 -19 8 -25 4 -5 -3 -4 2 4 12 12 15 12 17 0 14 -8 -2 -13 3 -11 10 2 10 -5
18 -9 10z"/>
<path d="M4740 2570 c0 -5 7 -10 15 -10 8 0 15 5 15 10 0 6 -7 10 -15 10 -8 0
-15 -4 -15 -10z"/>
<path d="M4748 2543 c7 -3 16 -2 19 1 4 3 -2 6 -13 5 -11 0 -14 -3 -6 -6z"/>
<path d="M4826 2542 c-3 -5 1 -9 9 -9 8 0 15 4 15 9 0 4 -4 8 -9 8 -6 0 -12
-4 -15 -8z"/>
<path d="M4440 2605 c0 -5 5 -17 10 -25 5 -8 10 -10 10 -5 0 6 -5 17 -10 25
-5 8 -10 11 -10 5z"/>
<path d="M4742 2217 c-9 -11 -10 -17 -2 -22 15 -9 23 -1 18 21 -3 15 -4 16
-16 1z"/>
<path d="M4796 2175 c4 -8 11 -15 16 -15 6 0 5 6 -2 15 -7 8 -14 15 -16 15 -2
0 -1 -7 2 -15z"/>
<path d="M4739 2139 c-11 -7 -11 -9 4 -9 9 0 17 -7 17 -15 0 -22 15 -18 17 4
2 23 -18 33 -38 20z"/>
<path d="M4770 2079 c0 -5 5 -7 10 -4 6 3 10 8 10 11 0 2 -4 4 -10 4 -5 0 -10
-5 -10 -11z"/>
<path d="M4782 2061 c-10 -6 -10 -10 3 -21 13 -11 15 -9 15 9 0 24 0 24 -18
12z"/>
<path d="M4983 2035 c-3 -9 -3 -19 1 -22 3 -4 6 1 6 11 0 10 5 14 12 10 7 -4
8 -3 4 4 -10 16 -15 15 -23 -3z"/>
<path d="M5040 2014 c7 -17 6 -32 0 -45 -11 -19 3 -29 14 -10 3 4 17 7 31 6
14 -2 23 0 20 5 -2 4 -16 6 -30 5 -14 -2 -23 1 -19 6 3 5 15 9 27 10 12 0 16
3 9 6 -10 4 -10 8 0 21 9 12 6 11 -10 -2 -20 -17 -26 -15 -24 6 1 3 -5 9 -13
12 -11 4 -12 0 -5 -20z"/>
<path d="M4760 2020 c0 -5 5 -10 11 -10 5 0 7 5 4 10 -3 6 -8 10 -11 10 -2 0
-4 -4 -4 -10z"/>
<path d="M4790 2009 c0 -5 5 -7 10 -4 6 3 10 8 10 11 0 2 -4 4 -10 4 -5 0 -10
-5 -10 -11z"/>
<path d="M4646 1982 c-3 -5 1 -9 9 -9 8 0 15 4 15 9 0 4 -4 8 -9 8 -6 0 -12
-4 -15 -8z"/>
<path d="M4691 1934 c0 -11 3 -14 6 -6 3 7 2 16 -1 19 -3 4 -6 -2 -5 -13z"/>
<path d="M4650 1860 c0 -5 5 -10 11 -10 5 0 7 5 4 10 -3 6 -8 10 -11 10 -2 0
-4 -4 -4 -10z"/>
<path d="M5165 1860 c-3 -5 1 -10 10 -10 9 0 13 5 10 10 -3 6 -8 10 -10 10 -2
0 -7 -4 -10 -10z"/>
<path d="M5096 1815 c-5 -15 10 -20 43 -15 13 1 13 -1 2 -14 -12 -14 -8 -15
38 -13 41 3 48 1 40 -10 -8 -9 -8 -13 -1 -13 12 0 27 39 18 48 -8 7 -35 13
-58 13 -10 0 -20 4 -23 10 -10 15 -52 10 -59 -6z"/>
<path d="M4016 1995 c-3 -8 -1 -15 3 -15 5 0 11 7 15 15 3 8 1 15 -3 15 -5 0
-11 -7 -15 -15z"/>
<path d="M4075 1850 c-13 -6 -15 -9 -5 -9 8 0 22 4 30 9 18 12 2 12 -25 0z"/>
<path d="M4471 1921 c-11 -11 -22 -17 -24 -15 -3 3 -8 -1 -13 -8 -4 -7 -4 -10
1 -6 5 5 14 -1 22 -12 17 -24 35 -27 26 -4 -5 14 -2 14 22 -2 22 -14 27 -15
23 -4 -2 8 -10 15 -15 15 -6 0 -14 3 -18 7 -4 4 -14 4 -23 1 -10 -4 -13 -2 -8
5 4 7 13 12 21 12 7 0 15 7 19 15 8 21 -10 19 -33 -4z"/>
<path d="M4415 1850 c-3 -5 -1 -10 4 -10 6 0 11 5 11 10 0 6 -2 10 -4 10 -3 0
-8 -4 -11 -10z"/>
<path d="M4505 1830 c3 -5 8 -10 11 -10 2 0 4 5 4 10 0 6 -5 10 -11 10 -5 0
-7 -4 -4 -10z"/>
<path d="M4575 1580 c-3 -5 -1 -10 4 -10 6 0 11 5 11 10 0 6 -2 10 -4 10 -3 0
-8 -4 -11 -10z"/>
<path d="M4467 1573 c-12 -22 -16 -63 -7 -63 6 0 8 5 5 10 -3 6 -2 10 3 10 13
0 23 39 12 45 -5 3 -11 2 -13 -2z"/>
<path d="M4580 1560 c-14 -4 -20 -8 -13 -9 6 -1 18 -3 26 -6 8 -4 14 0 14 10
0 8 -1 15 -1 14 -1 -1 -12 -5 -26 -9z"/>
<path d="M4401 1439 c-7 -12 -10 -23 -8 -26 3 -3 11 5 17 17 15 28 8 35 -9 9z"/>
<path d="M4440 1433 c6 -13 18 -23 28 -22 14 0 14 2 2 6 -8 4 -21 13 -28 22
-11 14 -11 13 -2 -6z"/>
<path d="M3480 1450 c6 -11 15 -20 20 -20 16 0 11 27 -6 34 -24 9 -26 8 -14
-14z"/>
<path d="M5046 1321 c-4 -5 3 -7 14 -4 23 6 26 13 6 13 -8 0 -17 -4 -20 -9z"/>
<path d="M4670 1236 c0 -2 8 -10 18 -17 15 -13 16 -12 3 4 -13 16 -21 21 -21
13z"/>
<path d="M1731 4604 c0 -11 3 -14 6 -6 3 7 2 16 -1 19 -3 4 -6 -2 -5 -13z"/>
<path d="M1410 3515 c0 -8 -7 -26 -16 -40 -14 -21 -14 -24 2 -33 9 -5 28 -6
43 -1 161 48 179 59 95 59 -33 0 -64 4 -69 9 -6 5 -20 12 -32 16 -17 5 -23 2
-23 -10z"/>
<path d="M2420 3068 c-31 -69 -32 -68 86 -68 l107 0 -44 48 c-42 46 -69 60
-69 38 0 -8 -3 -8 -8 0 -4 6 -17 14 -30 18 -19 7 -25 2 -42 -36z"/>
<path d="M2635 3010 c-4 -6 7 -10 24 -10 17 0 31 5 31 10 0 6 -11 10 -24 10
-14 0 -28 -4 -31 -10z"/>
<path d="M1360 2309 c0 -5 5 -7 10 -4 6 3 10 8 10 11 0 2 -4 4 -10 4 -5 0 -10
-5 -10 -11z"/>
<path d="M1129 2168 c-13 -4 -29 -18 -34 -31 -7 -15 -20 -23 -42 -25 -18 -2
-34 -6 -34 -10 -6 -32 -5 -52 4 -52 5 0 4 -7 -3 -15 -11 -13 -8 -15 14 -15 14
0 26 3 26 8 0 12 76 32 120 32 28 0 43 -5 47 -16 8 -21 -12 -37 -72 -59 -57
-21 -115 -61 -115 -80 0 -13 98 30 113 50 4 7 10 6 15 -1 4 -6 22 -17 40 -25
36 -16 40 -26 15 -45 -16 -12 -15 -13 10 -14 29 0 37 -14 12 -24 -8 -3 -12
-12 -9 -20 4 -10 -4 -16 -25 -21 -40 -8 -40 -22 -1 -22 17 0 30 4 30 9 0 13
36 49 62 62 47 23 81 119 62 171 -8 20 -102 65 -121 58 -7 -3 -13 -1 -13 5 0
12 34 22 75 22 44 0 63 15 49 37 -7 10 -21 18 -33 17 -11 0 -21 3 -21 8 0 11
-28 10 -32 -2 -2 -5 -25 -6 -59 -1 -30 4 -66 4 -80 -1z"/>
<path d="M756 1843 c11 -46 18 -46 29 0 6 23 4 27 -14 27 -18 0 -20 -4 -15
-27z"/>
<path d="M1365 1660 c-11 -17 3 -28 30 -22 28 5 33 17 9 26 -22 8 -32 8 -39
-4z"/>
<path d="M1093 1130 c-18 -28 -54 -44 -173 -75 -58 -15 -202 -61 -320 -102
-118 -41 -287 -99 -375 -129 -130 -45 -166 -62 -193 -89 l-32 -34 0 -350 0
-351 554 0 c460 0 555 2 559 14 13 32 19 107 10 119 -7 8 -6 86 2 222 8 133 9
212 3 216 -6 4 -6 68 0 175 7 140 8 293 3 387 -1 23 -23 22 -38 -3z"/>
<path d="M1370 760 c-13 -9 -13 -10 0 -10 8 0 22 5 30 10 13 9 13 10 0 10 -8
0 -22 -5 -30 -10z"/>
<path d="M1465 761 c-37 -6 -126 -58 -140 -82 -4 -6 0 -18 9 -28 16 -18 18
-17 45 9 26 27 139 70 182 70 27 0 23 19 -7 30 -27 11 -29 11 -89 1z m-85 -65
c0 -2 -8 -10 -17 -17 -16 -13 -17 -12 -4 4 13 16 21 21 21 13z"/>
<path d="M1588 708 c10 -13 8 -16 -18 -21 -19 -4 -30 -13 -30 -23 0 -9 -20
-37 -45 -62 -25 -25 -43 -52 -41 -59 3 -7 1 -15 -4 -18 -5 -3 -7 -19 -4 -35 6
-25 4 -28 -14 -23 -11 2 -23 14 -25 25 -8 31 -30 16 -47 -31 -10 -30 -12 -44
-4 -49 6 -4 28 -39 47 -79 20 -39 41 -74 47 -78 5 -3 10 -12 10 -18 0 -7 -4
-6 -10 3 -7 11 -10 12 -10 2 0 -8 8 -16 18 -19 10 -2 26 -19 36 -36 23 -42
105 -131 113 -123 3 3 1 36 -5 72 -8 49 -21 82 -49 123 -66 98 -91 171 -67
196 8 7 14 21 14 30 0 38 18 1 23 -47 5 -56 24 -108 39 -108 13 0 9 43 -7 64
-8 11 -15 31 -15 45 0 37 56 116 111 157 45 33 61 54 41 54 -5 0 -9 7 -9 14 0
11 5 12 18 5 34 -18 34 -9 0 13 -18 12 -45 22 -60 23 -14 2 -35 6 -46 11 -17
7 -18 6 -7 -8z m-188 -279 c0 -6 -4 -7 -10 -4 -5 3 -10 11 -10 16 0 6 5 7 10
4 6 -3 10 -11 10 -16z"/>
<path d="M1266 694 c-20 -19 -20 -25 -2 -18 8 3 17 12 20 20 7 18 1 18 -18 -2z"/>
<path d="M1255 208 c-35 -87 -36 -108 -7 -160 16 -29 34 -48 45 -48 22 0 22 3
-9 50 -15 22 -25 42 -22 45 2 2 17 -18 34 -45 24 -41 34 -50 57 -50 19 0 27 4
24 13 -2 6 -10 11 -16 9 -7 -1 -10 2 -6 8 3 5 -1 13 -9 16 -8 3 -29 28 -47 55
-27 43 -31 56 -27 99 3 28 4 50 3 50 -2 0 -11 -19 -20 -42z"/>
<path d="M3171 164 c0 -11 3 -14 6 -6 3 7 2 16 -1 19 -3 4 -6 -2 -5 -13z"/>
<path d="M1484 152 c3 -6 2 -22 -4 -37 -7 -17 -7 -24 0 -20 6 3 10 12 10 20 0
7 8 15 18 17 14 3 13 6 -7 17 -13 7 -21 8 -17 3z"/>
<path d="M3186 110 c10 -54 29 -103 42 -108 13 -4 10 11 -14 64 -7 17 -18 42
-24 55 -9 21 -9 19 -4 -11z"/>
<path d="M3330 34 c0 -20 5 -31 14 -31 16 0 15 13 -2 42 -10 18 -11 18 -12
-11z"/>
</g>
</svg>
